<svg width="204" height="68" viewBox="0 0 204 68" fill="none" xmlns="http://www.w3.org/2000/svg">
<path d="M24.1624 12.5031C24.1624 9.67306 26.1515 6.83997 29.2287 6.83997C32.3059 6.83997 34.295 9.67306 34.295 12.5031C34.295 15.3332 32.3059 18.1663 29.2287 18.1663C26.1515 18.1663 24.1624 15.3332 24.1624 12.5031ZM5.06631 13.6358C1.98911 13.6358 0 16.4689 0 19.2989C0 22.129 1.98911 24.9621 5.06631 24.9621C8.14351 24.9621 10.1326 22.129 10.1326 19.2989C10.1326 16.4689 8.14351 13.6358 5.06631 13.6358ZM40.1408 13.6358C37.0636 13.6358 35.0744 16.4689 35.0744 19.2989C35.0744 22.129 37.0636 24.9621 40.1408 24.9621C43.218 24.9621 45.2071 22.129 45.2071 19.2989C45.2071 16.4689 43.218 13.6358 40.1408 13.6358ZM15.9784 6.83997C12.9012 6.83997 10.912 9.67306 10.912 12.5031C10.912 15.3332 12.9012 18.1663 15.9784 18.1663C19.0556 18.1663 21.0447 15.3332 21.0447 12.5031C21.0447 9.67306 19.0556 6.83997 15.9784 6.83997ZM22.6035 21.9417C18.4692 21.9417 14.5041 23.5328 11.5807 26.365C8.65726 29.1971 7.01489 33.0383 7.01489 37.0435C7.01489 40.9639 10.7936 43.0842 14.1389 43.0842H31.0682C34.4135 43.0842 38.1922 40.9639 38.1922 37.0435C38.1922 33.0383 36.5498 29.1971 33.6264 26.365C30.7029 23.5328 26.7379 21.9417 22.6035 21.9417Z" fill="#166B68"/>
<path d="M63.968 43V9.4H71.744C77.024 9.4 79.616 12.328 79.616 17.704V21.016C79.616 26.392 77.024 29.32 71.744 29.32H69.248V43H63.968ZM69.248 24.52H71.744C73.424 24.52 74.336 23.752 74.336 21.352V17.368C74.336 14.968 73.424 14.2 71.744 14.2H69.248V24.52ZM86.8036 43V9.4H101.204V14.2H92.0836V23.08H99.3316V27.88H92.0836V38.2H101.204V43H86.8036ZM112.689 43V14.2H107.169V9.4H123.489V14.2H117.969V43H112.689ZM130.365 43V9.4H135.645V43H130.365ZM143.92 43V9.4H157.888V14.2H149.2V23.56H156.016V28.36H149.2V43H143.92ZM169.588 43V28.696L163.204 9.4H168.82L172.42 21.736H172.516L176.116 9.4H181.252L174.868 28.696V43H169.588Z" fill="#166B68"/>
</svg>
