<svg width="1248" height="494" viewBox="0 0 1248 494" fill="none" xmlns="http://www.w3.org/2000/svg">
<path d="M367.829 473.505L367.829 473.505C367.301 475.491 366.229 477.25 364.712 478.679L364.712 478.679C361.443 481.76 356.417 482.583 352.299 480.7L352.298 480.7C351.708 480.431 351.142 480.112 350.607 479.749L350.582 479.732L350.582 479.732C349.632 479.084 348.792 478.295 348.091 477.395C346.701 475.597 344.763 474.279 342.555 473.628C341.436 473.296 340.378 472.793 339.42 472.14L339.419 472.139C338.889 471.779 338.392 471.375 337.933 470.932L337.932 470.932C334.69 467.814 333.745 462.921 335.588 458.864L334.672 458.467L335.588 458.864C336.44 456.99 337.76 455.406 339.487 454.238L338.93 453.425L339.487 454.238C341.224 453.064 343.272 452.41 345.354 452.314C347.23 452.227 349.033 451.683 350.645 450.743L350.645 450.743C354.307 448.607 359.064 448.612 362.775 451.136C366.484 453.66 368.126 458.004 367.338 462.085L368.288 462.251L367.338 462.085C366.989 463.888 367.089 465.729 367.655 467.481L367.655 467.481C368.28 469.416 368.359 471.512 367.829 473.505ZM379.697 446.637L379.697 446.637C378.172 448.077 376.458 448.978 374.956 449.305C373.436 449.636 372.302 449.356 371.66 448.707C371.022 448.062 370.777 446.957 371.165 445.493C371.548 444.045 372.526 442.404 374.052 440.964C375.577 439.523 377.292 438.622 378.793 438.295C380.313 437.965 381.447 438.244 382.089 438.893C382.727 439.538 382.972 440.643 382.584 442.107C382.201 443.555 381.223 445.196 379.697 446.637ZM377.293 456.721L377.293 456.721C379.148 455.713 381.043 455.274 382.58 455.338C384.138 455.402 385.156 455.961 385.601 456.747C386.043 457.527 385.989 458.654 385.227 459.972C384.473 461.276 383.094 462.617 381.239 463.625C379.384 464.633 377.489 465.072 375.951 465.008C374.394 464.944 373.376 464.385 372.93 463.599C372.489 462.819 372.542 461.692 373.305 460.374C374.059 459.07 375.438 457.729 377.293 456.721ZM361.24 434.098C362.098 432.205 363.34 430.743 364.603 429.89C365.881 429.027 367.038 428.867 367.885 429.231C368.732 429.595 369.389 430.532 369.595 432.031C369.798 433.513 369.524 435.39 368.666 437.282C367.807 439.175 366.566 440.637 365.302 441.49C364.025 442.353 362.868 442.513 362.02 442.149C361.173 441.785 360.517 440.847 360.311 439.349C360.107 437.867 360.381 435.99 361.24 434.098ZM344.361 438.551C344.69 436.508 345.502 434.784 346.497 433.643C347.502 432.49 348.575 432.045 349.488 432.182C350.405 432.318 351.291 433.059 351.888 434.456C352.479 435.836 352.711 437.718 352.382 439.761C352.053 441.804 351.24 443.528 350.246 444.669C349.24 445.822 348.168 446.267 347.254 446.131C346.338 445.994 345.452 445.253 344.854 443.856C344.264 442.476 344.032 440.594 344.361 438.551Z" stroke="#156B67" stroke-opacity="0.3" stroke-width="2"/>
<path d="M639.594 15.4965L639.594 15.4965C641.546 14.8546 643.605 14.7922 645.631 15.2831L645.631 15.2831C649.997 16.3408 653.429 20.1029 654.1 24.5804L654.1 24.5811C654.197 25.2232 654.239 25.8711 654.226 26.5178L654.226 26.5476L654.226 26.5483C654.201 27.6981 653.999 28.8326 653.627 29.911C652.88 32.0572 652.834 34.4001 653.493 36.6047C653.825 37.7242 653.982 38.8849 653.958 40.0445L653.958 40.0453C653.945 40.6859 653.878 41.3229 653.758 41.9493L653.757 41.9504C652.915 46.3685 649.331 49.8322 644.925 50.5021L645.094 51.4865L644.925 50.5021C642.891 50.8115 640.843 50.5697 638.922 49.7602L638.542 50.6759L638.922 49.7602C636.99 48.9463 635.324 47.5869 634.107 45.8954C633.01 44.3703 631.57 43.1568 629.903 42.3194L629.903 42.3194C626.114 40.4165 623.521 36.4283 623.611 31.9414C623.7 27.4562 626.444 23.7088 630.293 22.1418C631.994 21.4493 633.482 20.3607 634.641 18.9303L634.641 18.9302C635.921 17.3502 637.635 16.1403 639.594 15.4965ZM610.603 20.2186L610.603 20.2186C612.642 20.7104 614.333 21.6551 615.427 22.7347C616.534 23.8278 616.918 24.9305 616.725 25.8225C616.533 26.709 615.741 27.518 614.303 27.9921C612.88 28.4612 610.971 28.5378 608.931 28.0458C606.892 27.5539 605.201 26.6092 604.108 25.5297C603.001 24.4365 602.616 23.3339 602.81 22.4419C603.002 21.5555 603.794 20.7464 605.232 20.2723C606.655 19.8032 608.563 19.7266 610.603 20.2186ZM620.365 16.7284L620.365 16.7284C618.507 15.7246 617.105 14.3761 616.32 13.0534C615.523 11.7129 615.436 10.555 615.851 9.75301C616.264 8.9574 617.237 8.38696 618.758 8.30614C620.262 8.22623 622.138 8.64963 623.996 9.65376C625.853 10.6576 627.255 12.0061 628.041 13.3288C628.837 14.6693 628.925 15.8272 628.509 16.6292C628.097 17.4248 627.123 17.9952 625.602 18.0761C624.098 18.156 622.222 17.7326 620.365 16.7284ZM610.172 42.5284C608.118 42.8421 606.215 42.6004 604.811 42.0073C603.391 41.4076 602.625 40.5259 602.467 39.6169C602.31 38.709 602.737 37.6468 603.88 36.6565C605.01 35.677 606.733 34.8818 608.787 34.5681C610.841 34.2545 612.744 34.4962 614.149 35.0892C615.569 35.6889 616.335 36.5706 616.492 37.4796C616.65 38.3877 616.223 39.4499 615.08 40.4401C613.949 41.4196 612.227 42.2148 610.172 42.5284ZM623.118 54.24C621.226 55.0796 619.338 55.3395 617.839 55.129C616.324 54.9162 615.366 54.2605 614.982 53.4204C614.596 52.5779 614.733 51.4309 615.577 50.168C616.412 48.9198 617.861 47.6979 619.753 46.8584C621.644 46.0187 623.532 45.7588 625.031 45.9694C626.546 46.1822 627.504 46.8379 627.889 47.6779C628.274 48.5204 628.137 49.6675 627.293 50.9303C626.459 52.1786 625.009 53.4004 623.118 54.24Z" stroke="#156B67" stroke-opacity="0.3" stroke-width="2"/>
<path d="M1220.83 98.1665L1220.83 98.1666C1220.3 100.153 1219.23 101.912 1217.71 103.341L1217.71 103.341C1214.44 106.422 1209.42 107.244 1205.3 105.362L1205.3 105.362C1204.71 105.092 1204.14 104.774 1203.61 104.41L1203.58 104.394L1203.58 104.393C1202.63 103.745 1201.79 102.956 1201.09 102.056C1199.7 100.258 1197.76 98.9407 1195.56 98.29C1194.44 97.9571 1193.38 97.4548 1192.42 96.8014L1192.42 96.8009C1191.89 96.4405 1191.39 96.0367 1190.93 95.594L1190.93 95.5933C1187.69 92.4755 1186.74 87.5822 1188.59 83.5252L1187.67 83.1286L1188.59 83.5251C1189.44 81.6514 1190.76 80.0675 1192.49 78.8998L1191.93 78.0819L1192.49 78.8998C1194.22 77.7255 1196.27 77.0717 1198.35 76.9752C1200.23 76.8884 1202.03 76.3447 1203.64 75.405L1203.64 75.4049C1207.31 73.269 1212.06 73.2736 1215.77 75.7979C1219.48 78.3212 1221.13 82.6658 1220.34 86.7463C1219.99 88.5493 1220.09 90.3906 1220.65 92.1423L1220.65 92.1424C1221.28 94.0772 1221.36 96.1737 1220.83 98.1665ZM1232.7 71.2982L1232.7 71.2983C1231.17 72.7385 1229.46 73.6398 1227.96 73.9665C1226.44 74.2972 1225.3 74.0174 1224.66 73.3686C1224.02 72.7237 1223.78 71.6184 1224.16 70.1547C1224.55 68.7065 1225.53 67.0656 1227.05 65.6251C1228.58 64.1849 1230.29 63.2836 1231.79 62.9569C1233.31 62.6261 1234.45 62.9059 1235.09 63.5547C1235.73 64.1996 1235.97 65.3049 1235.58 66.7686C1235.2 68.2168 1234.22 69.8577 1232.7 71.2982ZM1230.29 81.3824L1230.29 81.3824C1232.15 80.3743 1234.04 79.9356 1235.58 79.9994C1237.14 80.064 1238.16 80.6226 1238.6 81.4086C1239.04 82.1883 1238.99 83.3155 1238.23 84.6339C1237.47 85.9377 1236.09 87.2785 1234.24 88.2868C1232.38 89.2949 1230.49 89.7336 1228.95 89.6698C1227.39 89.6052 1226.38 89.0466 1225.93 88.2607C1225.49 87.481 1225.54 86.3537 1226.3 85.0352C1227.06 83.7314 1228.44 82.3907 1230.29 81.3824ZM1214.24 58.7593C1215.1 56.867 1216.34 55.4045 1217.6 54.5515C1218.88 53.6888 1220.04 53.5285 1220.89 53.8926C1221.73 54.2562 1222.39 55.1939 1222.59 56.6922C1222.8 58.1741 1222.52 60.0514 1221.67 61.9438C1220.81 63.8361 1219.57 65.2986 1218.3 66.1516C1217.02 67.0143 1215.87 67.1746 1215.02 66.8106C1214.17 66.4469 1213.52 65.509 1213.31 64.0108C1213.11 62.5288 1213.38 60.6516 1214.24 58.7593ZM1197.36 63.2127C1197.69 61.1696 1198.5 59.4457 1199.5 58.3048C1200.5 57.1516 1201.57 56.7065 1202.49 56.8431C1203.4 56.98 1204.29 57.7209 1204.89 59.1175C1205.48 60.498 1205.71 62.3798 1205.38 64.4227C1205.05 66.4657 1204.24 68.1896 1203.25 69.3305C1202.24 70.4837 1201.17 70.9288 1200.25 70.7922C1199.34 70.6553 1198.45 69.9145 1197.85 68.5178C1197.26 67.1374 1197.03 65.2555 1197.36 63.2127Z" stroke="#156B67" stroke-opacity="0.3" stroke-width="2"/>
<path d="M923.829 84.1665L923.829 84.1666C923.301 86.1528 922.229 87.9116 920.712 89.3409L920.712 89.3409C917.443 92.4218 912.417 93.2441 908.299 91.362L908.298 91.3617C907.708 91.0922 907.142 90.7739 906.607 90.4104L906.582 90.3937L906.581 90.3933C905.631 89.7451 904.791 88.9564 904.091 88.0558C902.701 86.2583 900.763 84.9407 898.555 84.29C897.436 83.9571 896.378 83.4548 895.42 82.8014L895.419 82.8009C894.889 82.4405 894.392 82.0367 893.933 81.594L893.932 81.5933C890.69 78.4755 889.744 73.5822 891.588 69.5252L890.672 69.1286L891.588 69.5251C892.44 67.6514 893.76 66.0675 895.487 64.8998L894.927 64.0819L895.487 64.8998C897.224 63.7255 899.272 63.0717 901.353 62.9752C903.23 62.8884 905.033 62.3447 906.645 61.405L906.645 61.4049C910.307 59.269 915.064 59.2736 918.775 61.7979C922.484 64.3212 924.126 68.6659 923.338 72.7464C922.989 74.5493 923.089 76.3906 923.655 78.1423L923.655 78.1424C924.28 80.0772 924.359 82.1737 923.829 84.1665ZM935.697 57.2982L935.697 57.2983C934.172 58.7385 932.457 59.6398 930.956 59.9665C929.436 60.2972 928.302 60.0174 927.66 59.3686C927.022 58.7237 926.777 57.6184 927.165 56.1547C927.548 54.7065 928.526 53.0656 930.052 51.6251C931.577 50.1849 933.292 49.2836 934.793 48.9569C936.313 48.6262 937.447 48.9059 938.089 49.5547C938.727 50.1996 938.972 51.3049 938.584 52.7686C938.201 54.2168 937.223 55.8577 935.697 57.2982ZM933.293 67.3824L933.293 67.3824C935.148 66.3743 937.043 65.9356 938.58 65.9994C940.138 66.064 941.156 66.6227 941.601 67.4086C942.043 68.1883 941.989 69.3155 941.227 70.634C940.473 71.9377 939.094 73.2785 937.239 74.2868C935.384 75.2949 933.488 75.7336 931.951 75.6698C930.394 75.6052 929.376 75.0466 928.93 74.2607C928.489 73.481 928.542 72.3537 929.305 71.0352C930.059 69.7314 931.438 68.3907 933.293 67.3824ZM917.24 44.7593C918.098 42.867 919.339 41.4045 920.603 40.5515C921.881 39.6888 923.038 39.5286 923.885 39.8926C924.732 40.2562 925.389 41.1939 925.595 42.6922C925.798 44.1741 925.524 46.0514 924.666 47.9438C923.807 49.8361 922.566 51.2986 921.302 52.1517C920.025 53.0143 918.868 53.1746 918.02 52.8106C917.173 52.4469 916.517 51.509 916.311 50.0108C916.107 48.5288 916.381 46.6516 917.24 44.7593ZM900.361 49.2127C900.689 47.1696 901.502 45.4457 902.497 44.3049C903.502 43.1516 904.575 42.7066 905.488 42.8431C906.405 42.98 907.291 43.7209 907.888 45.1175C908.479 46.498 908.711 48.3798 908.382 50.4227C908.053 52.4658 907.24 54.1896 906.246 55.3305C905.24 56.4837 904.168 56.9288 903.254 56.7922C902.338 56.6553 901.452 55.9145 900.854 54.5179C900.264 53.1374 900.032 51.2556 900.361 49.2127Z" stroke="#156B67" stroke-opacity="0.5" stroke-width="2"/>
<path d="M1134.57 465.692L1134.57 465.692C1134.56 467.747 1133.96 469.717 1132.85 471.48L1132.85 471.48C1130.45 475.279 1125.79 477.328 1121.33 476.532L1121.33 476.532C1120.69 476.419 1120.06 476.252 1119.45 476.033L1119.43 476.023L1119.43 476.023C1118.34 475.632 1117.33 475.078 1116.43 474.38C1114.64 472.986 1112.43 472.193 1110.13 472.114C1108.96 472.07 1107.81 471.848 1106.72 471.454L1106.72 471.454C1106.12 471.237 1105.54 470.97 1104.98 470.655L1104.98 470.655C1101.06 468.444 1098.93 463.941 1099.7 459.552L1098.72 459.397L1099.7 459.552C1100.06 457.526 1100.94 455.662 1102.32 454.101L1101.58 453.449L1102.32 454.101C1103.71 452.531 1105.53 451.387 1107.53 450.774C1109.32 450.222 1110.93 449.246 1112.26 447.934L1112.26 447.934C1115.27 444.953 1119.88 443.771 1124.1 445.29C1128.32 446.809 1131 450.607 1131.25 454.755C1131.36 456.588 1131.92 458.346 1132.9 459.901L1132.9 459.901C1133.99 461.619 1134.59 463.63 1134.57 465.692ZM1139.37 436.713L1139.37 436.713C1138.25 438.488 1136.82 439.788 1135.44 440.479C1134.05 441.178 1132.89 441.19 1132.1 440.722C1131.32 440.256 1130.81 439.247 1130.82 437.733C1130.83 436.235 1131.37 434.402 1132.49 432.627C1133.6 430.851 1135.04 429.551 1136.41 428.86C1137.8 428.161 1138.97 428.149 1139.75 428.617C1140.53 429.083 1141.05 430.092 1141.04 431.606C1141.02 433.104 1140.49 434.937 1139.37 436.713ZM1139.56 447.078L1139.56 447.078C1141.1 445.639 1142.83 444.742 1144.33 444.42C1145.86 444.094 1146.98 444.381 1147.61 445.031C1148.23 445.676 1148.46 446.781 1148.05 448.248C1147.64 449.699 1146.64 451.341 1145.1 452.78C1143.55 454.219 1141.83 455.117 1140.32 455.438C1138.8 455.764 1137.67 455.477 1137.05 454.827C1136.42 454.182 1136.19 453.077 1136.6 451.61C1137.01 450.159 1138.01 448.517 1139.56 447.078ZM1118.37 429.172C1118.73 427.126 1119.56 425.4 1120.58 424.259C1121.6 423.105 1122.68 422.661 1123.59 422.802C1124.5 422.943 1125.37 423.688 1125.94 425.087C1126.51 426.472 1126.71 428.358 1126.35 430.405C1125.99 432.451 1125.16 434.177 1124.15 435.318C1123.12 436.472 1122.04 436.916 1121.13 436.775C1120.22 436.634 1119.35 435.889 1118.78 434.49C1118.21 433.105 1118.01 431.219 1118.37 429.172ZM1103.13 437.694C1102.94 435.634 1103.3 433.761 1103.98 432.409C1104.66 431.041 1105.59 430.343 1106.51 430.247C1107.43 430.151 1108.47 430.648 1109.4 431.851C1110.32 433.041 1111.01 434.805 1111.2 436.866C1111.39 438.926 1111.04 440.798 1110.36 442.151C1109.67 443.519 1108.74 444.217 1107.82 444.313C1106.9 444.409 1105.86 443.912 1104.93 442.709C1104.02 441.519 1103.32 439.755 1103.13 437.694Z" stroke="#156B67" stroke-opacity="0.7" stroke-width="2"/>
<path d="M1100.19 50.9209L1100.19 50.921C1101.46 52.5429 1102.21 54.4601 1102.43 56.5327L1102.43 56.5327C1102.9 60.9998 1100.52 65.4993 1096.53 67.6395L1096.53 67.6398C1095.96 67.9472 1095.36 68.2054 1094.75 68.4115L1094.72 68.421L1094.72 68.4212C1093.63 68.7856 1092.49 68.9775 1091.35 68.9903C1089.08 69.0101 1086.86 69.7562 1085 71.12C1084.06 71.8099 1083.02 72.3485 1081.92 72.7163L1081.92 72.7166C1081.31 72.9203 1080.69 73.0719 1080.06 73.1699L1080.06 73.17C1075.61 73.8653 1071.15 71.6584 1069.03 67.7361L1068.16 68.2261L1069.03 67.7361C1068.05 65.9247 1067.59 63.9149 1067.71 61.8336L1066.72 61.7847L1067.71 61.8336C1067.82 59.7404 1068.54 57.714 1069.72 55.9979C1070.79 54.451 1071.45 52.6868 1071.67 50.835L1071.67 50.8349C1072.19 46.6263 1075.07 42.8413 1079.32 41.4137C1083.58 39.9866 1088.03 41.3073 1090.8 44.4034C1092.03 45.7714 1093.55 46.8059 1095.29 47.4149L1095.29 47.415C1097.21 48.0875 1098.93 49.2935 1100.19 50.9209ZM1085.98 25.2165L1085.98 25.2166C1086.2 27.3024 1085.88 29.213 1085.23 30.606C1084.58 32.0165 1083.67 32.7502 1082.76 32.8687C1081.87 32.9865 1080.84 32.5134 1079.91 31.3191C1078.98 30.1376 1078.27 28.3665 1078.05 26.2802C1077.82 24.1944 1078.14 22.2838 1078.79 20.8908C1079.45 19.4802 1080.35 18.7466 1081.26 18.628C1082.16 18.5102 1083.19 18.9834 1084.12 20.1776C1085.04 21.3591 1085.75 23.1302 1085.98 25.2165ZM1092.55 33.2313L1092.55 33.2313C1092.87 31.1445 1093.67 29.37 1094.65 28.1846C1095.64 26.9833 1096.71 26.5106 1097.6 26.6316C1098.49 26.7516 1099.35 27.4761 1099.94 28.8809C1100.52 30.27 1100.76 32.179 1100.44 34.2664C1100.12 36.3532 1099.32 38.1277 1098.34 39.3131C1097.35 40.5144 1096.29 40.9871 1095.39 40.8661C1094.5 40.7461 1093.64 40.0215 1093.05 38.6167C1092.47 37.2276 1092.23 35.3186 1092.55 33.2313ZM1064.83 32.3287C1063.84 30.5004 1063.43 28.6273 1063.51 27.1051C1063.6 25.5658 1064.17 24.5477 1064.97 24.0929C1065.77 23.6387 1066.92 23.683 1068.24 24.4255C1069.54 25.1599 1070.87 26.5136 1071.86 28.3421C1072.84 30.1704 1073.26 32.0435 1073.17 33.5657C1073.09 35.105 1072.51 36.123 1071.71 36.5778C1070.91 37.0321 1069.77 36.9877 1068.45 36.2452C1067.14 35.5108 1065.82 34.1571 1064.83 32.3287ZM1058.16 48.4632C1056.74 46.9653 1055.85 45.2752 1055.55 43.7931C1055.24 42.2949 1055.53 41.1717 1056.19 40.5267C1056.86 39.8799 1057.98 39.6223 1059.46 39.9916C1060.91 40.3566 1062.55 41.31 1063.98 42.8077C1065.41 44.3056 1066.29 45.9957 1066.6 47.4778C1066.91 48.9759 1066.61 50.0992 1065.95 50.7441C1065.29 51.3909 1064.16 51.6485 1062.69 51.2793C1061.23 50.9143 1059.59 49.9609 1058.16 48.4632Z" stroke="#156B67" stroke-opacity="0.7" stroke-width="2"/>
<path d="M1209.25 276.128L1209.25 276.128C1210.51 277.75 1211.26 279.667 1211.48 281.74L1211.48 281.74C1211.96 286.207 1209.57 290.707 1205.58 292.847L1205.58 292.847C1205.01 293.155 1204.42 293.413 1203.8 293.619L1203.77 293.628L1203.77 293.629C1202.68 293.993 1201.55 294.185 1200.41 294.198C1198.13 294.217 1195.91 294.963 1194.06 296.327C1193.12 297.017 1192.08 297.556 1190.98 297.924L1190.97 297.924C1190.37 298.128 1189.75 298.279 1189.11 298.377L1189.11 298.377C1184.67 299.073 1180.2 296.866 1178.09 292.943L1177.22 293.433L1178.09 292.943C1177.11 291.132 1176.65 289.122 1176.76 287.041L1175.77 286.992L1176.76 287.041C1176.88 284.948 1177.6 282.921 1178.78 281.205C1179.84 279.658 1180.5 277.894 1180.73 276.042L1180.73 276.042C1181.24 271.834 1184.12 268.049 1188.38 266.621C1192.63 265.194 1197.09 266.515 1199.86 269.611C1201.08 270.979 1202.61 272.013 1204.35 272.622L1204.35 272.622C1206.27 273.295 1207.98 274.501 1209.25 276.128ZM1195.03 250.424L1195.03 250.424C1195.26 252.51 1194.94 254.42 1194.29 255.813C1193.63 257.224 1192.73 257.957 1191.82 258.076C1190.92 258.194 1189.89 257.721 1188.96 256.526C1188.04 255.345 1187.32 253.574 1187.1 251.488C1186.88 249.402 1187.2 247.491 1187.84 246.098C1188.5 244.688 1189.41 243.954 1190.31 243.835C1191.21 243.718 1192.24 244.191 1193.17 245.385C1194.09 246.566 1194.81 248.338 1195.03 250.424ZM1201.61 258.439L1201.61 258.439C1201.93 256.352 1202.73 254.577 1203.71 253.392C1204.7 252.191 1205.76 251.718 1206.66 251.839C1207.54 251.959 1208.41 252.683 1209 254.088C1209.58 255.477 1209.81 257.386 1209.49 259.474C1209.17 261.561 1208.38 263.335 1207.4 264.52C1206.4 265.722 1205.34 266.194 1204.45 266.073C1203.56 265.953 1202.69 265.229 1202.1 263.824C1201.52 262.435 1201.29 260.526 1201.61 258.439ZM1173.88 257.536C1172.9 255.708 1172.48 253.835 1172.57 252.312C1172.65 250.773 1173.23 249.755 1174.03 249.3C1174.83 248.846 1175.97 248.89 1177.29 249.633C1178.59 250.367 1179.92 251.721 1180.91 253.549C1181.9 255.378 1182.31 257.251 1182.23 258.773C1182.14 260.312 1181.57 261.33 1180.77 261.785C1179.96 262.239 1178.82 262.195 1177.5 261.453C1176.2 260.718 1174.87 259.364 1173.88 257.536ZM1167.22 273.671C1165.79 272.173 1164.91 270.483 1164.6 269C1164.29 267.502 1164.59 266.379 1165.25 265.734C1165.91 265.087 1167.04 264.83 1168.51 265.199C1169.97 265.564 1171.61 266.517 1173.03 268.015C1174.46 269.513 1175.34 271.203 1175.65 272.685C1175.96 274.183 1175.67 275.307 1175 275.951C1174.34 276.598 1173.22 276.856 1171.74 276.487C1170.29 276.122 1168.65 275.168 1167.22 273.671Z" stroke="#156B67" stroke-opacity="0.7" stroke-width="2"/>
<path d="M168.734 68.1498L168.734 68.1498C166.684 67.9951 164.759 67.2645 163.075 66.0354L163.075 66.0354C159.447 63.3866 157.717 58.5969 158.812 54.2038L158.812 54.2031C158.968 53.5729 159.177 52.9581 159.437 52.3656L159.448 52.3383L159.449 52.3376C159.912 51.2848 160.533 50.3142 161.29 49.4606C162.802 47.7639 163.741 45.6173 163.976 43.3281C164.098 42.1668 164.398 41.0346 164.864 39.9727L164.865 39.9719C165.122 39.3851 165.427 38.8223 165.778 38.2896L165.779 38.2887C168.249 34.53 172.886 32.7024 177.212 33.7706L177.434 32.7968L177.212 33.7706C179.21 34.2639 181.01 35.2714 182.474 36.7547L183.176 36.0542L182.474 36.7547C183.947 38.2464 184.966 40.14 185.443 42.1686C185.872 43.9977 186.737 45.6699 187.957 47.0818L187.957 47.0819C190.728 50.2906 191.596 54.9675 189.796 59.0783C187.996 63.1874 184.026 65.5985 179.87 65.5722C178.034 65.5606 176.242 65.9964 174.624 66.8741L174.624 66.8741C172.836 67.8438 170.79 68.3052 168.734 68.1498ZM197.323 74.8884L197.323 74.8884C195.628 73.6531 194.427 72.1329 193.831 70.717C193.227 69.2833 193.294 68.1174 193.814 67.3675C194.331 66.6221 195.372 66.178 196.882 66.2907C198.376 66.4021 200.169 67.0621 201.865 68.2977C203.56 69.533 204.761 71.0532 205.357 72.4691C205.961 73.9028 205.894 75.0687 205.374 75.8186C204.857 76.564 203.816 77.0081 202.306 76.8954C200.812 76.7839 199.019 76.124 197.323 74.8884ZM186.969 74.3747L186.969 74.3747C188.3 76.0132 189.079 77.7958 189.299 79.3185C189.521 80.8617 189.159 81.965 188.468 82.5467C187.782 83.1238 186.664 83.278 185.228 82.7702C183.808 82.2682 182.237 81.1587 180.906 79.5198C179.575 77.8813 178.796 76.0987 178.576 74.5761C178.354 73.0329 178.716 71.9296 179.407 71.3478C180.093 70.7707 181.211 70.6166 182.647 71.1243C184.067 71.6264 185.638 72.7359 186.969 74.3747ZM206.264 54.4437C208.281 54.9405 209.947 55.8924 211.017 56.978C212.099 58.0759 212.469 59.1836 212.267 60.0837C212.065 60.9828 211.263 61.8004 209.828 62.2775C208.409 62.7495 206.513 62.8246 204.495 62.3278C202.478 61.831 200.812 60.879 199.742 59.7934C198.659 58.6956 198.29 57.5879 198.492 56.6878C198.694 55.7886 199.496 54.971 200.931 54.4939C202.35 54.0219 204.246 53.9468 206.264 54.4437ZM198.789 38.6679C200.858 38.6164 202.702 39.0993 204.006 39.8677C205.324 40.6444 205.958 41.6171 205.992 42.5403C206.025 43.4662 205.459 44.4734 204.196 45.3168C202.947 46.1504 201.14 46.724 199.071 46.7754C197.003 46.8268 195.159 46.3439 193.855 45.5755C192.537 44.7988 191.903 43.8261 191.869 42.9029C191.836 41.977 192.401 40.9698 193.665 40.1265C194.914 39.2928 196.721 38.7193 198.789 38.6679Z" stroke="#156B67" stroke-opacity="0.7" stroke-width="2"/>
<path d="M37.9575 286.541L37.9574 286.542C36.8597 288.299 35.3085 289.685 33.4293 290.629L33.4293 290.629C29.379 292.664 24.3282 292.038 20.9531 289.088L20.9526 289.088C20.4678 288.665 20.0212 288.202 19.6176 287.705L19.5983 287.681L19.5978 287.681C18.8821 286.795 18.3128 285.806 17.9102 284.748C17.112 282.635 15.646 280.828 13.7223 279.583C12.7514 278.952 11.8891 278.175 11.1668 277.283L11.1662 277.282C10.7668 276.789 10.4112 276.264 10.1033 275.712L10.1028 275.711C7.92785 271.822 8.47038 266.867 11.4483 263.491L10.6821 262.851L11.4484 263.491C12.8228 261.932 14.5604 260.785 16.5619 260.15L16.296 259.337L16.5619 260.15C18.5746 259.513 20.7291 259.462 22.7481 259.952C24.5733 260.396 26.4615 260.381 28.2831 259.933L28.2831 259.933C32.4251 258.915 36.9706 260.254 39.7674 263.704C42.5641 267.154 42.8511 271.774 40.8801 275.468L41.7782 275.918L40.8801 275.468C40.0127 277.094 39.5616 278.882 39.5831 280.717L39.5831 280.717C39.6072 282.746 39.059 284.778 37.9575 286.541ZM57.2941 264.152L57.2941 264.152C55.4037 265.104 53.4938 265.486 51.961 265.378C50.4089 265.268 49.4147 264.684 48.9969 263.89C48.5793 263.097 48.6704 261.967 49.4803 260.668C50.2801 259.385 51.7067 258.086 53.5972 257.134C55.4876 256.182 57.3975 255.8 58.9303 255.908C60.4824 256.018 61.4766 256.602 61.8944 257.395C62.3119 258.189 62.2208 259.319 61.411 260.617C60.6111 261.9 59.1846 263.199 57.2941 264.152ZM52.0225 273.129L52.0225 273.129C54.0986 272.684 56.0418 272.796 57.4912 273.287C58.9589 273.784 59.762 274.6 59.9538 275.473C60.1454 276.345 59.7575 277.415 58.6312 278.468C57.5189 279.508 55.798 280.405 53.7218 280.85C51.6457 281.296 49.7025 281.184 48.2532 280.693C46.7854 280.195 45.9823 279.38 45.7905 278.507C45.5989 277.635 45.9868 276.564 47.1131 275.512C48.2255 274.472 49.9464 273.574 52.0225 273.129ZM43.3642 246.972C44.7506 245.398 46.3761 244.344 47.8411 243.881C49.3243 243.413 50.4737 243.587 51.1693 244.166C51.8647 244.746 52.218 245.824 51.9691 247.321C51.7234 248.8 50.9019 250.524 49.5155 252.098C48.129 253.671 46.5035 254.725 45.0386 255.188C43.5553 255.657 42.4061 255.483 41.7104 254.903C41.0149 254.323 40.6617 253.245 40.9105 251.748C41.1563 250.269 41.9778 248.546 43.3642 246.972ZM25.8775 246.507C26.8007 244.64 28.0935 243.214 29.3879 242.399C30.6984 241.573 31.8564 241.452 32.6833 241.835C33.5105 242.219 34.1389 243.169 34.2962 244.676C34.4515 246.164 34.1149 248.033 33.1917 249.9C32.2684 251.767 30.9756 253.193 29.6813 254.008C28.3708 254.834 27.2128 254.955 26.3858 254.572C25.5587 254.188 24.9303 253.238 24.773 251.731C24.6176 250.243 24.9543 248.374 25.8775 246.507Z" stroke="#156B67" stroke-opacity="0.3" stroke-width="2"/>
<path d="M900.164 460.58L900.165 460.58C901.675 462.021 902.708 463.807 903.225 465.801L903.225 465.801C904.337 470.099 902.553 474.732 898.828 477.248L898.828 477.248C898.293 477.61 897.728 477.926 897.138 478.194L897.109 478.207L897.109 478.207C896.058 478.681 894.937 478.993 893.786 479.132C891.486 479.404 889.338 480.377 887.65 481.913C886.796 482.687 885.822 483.324 884.762 483.803L884.762 483.803C884.177 484.068 883.569 484.284 882.946 484.449L882.945 484.45C878.553 485.617 873.711 483.971 871.008 480.379L870.191 480.959L871.008 480.379C869.761 478.722 869.009 476.815 868.831 474.776L867.821 474.855L868.831 474.776C868.653 472.726 869.095 470.677 870.048 468.88C870.91 467.254 871.327 465.465 871.295 463.639L871.295 463.639C871.223 459.488 873.604 455.497 877.698 453.642C881.792 451.786 886.488 452.571 889.739 455.282C891.169 456.474 892.857 457.31 894.7 457.709L894.7 457.709C896.738 458.151 898.649 459.134 900.164 460.58ZM882.159 437.169L882.159 437.169C882.681 439.176 882.626 441.07 882.167 442.494C881.702 443.937 880.89 444.742 880.002 444.955C879.112 445.168 878 444.824 876.883 443.76C875.78 442.709 874.805 441.061 874.283 439.055C873.761 437.048 873.816 435.154 874.275 433.729C874.74 432.287 875.551 431.482 876.44 431.269C877.329 431.055 878.441 431.4 879.559 432.464C880.662 433.515 881.637 435.162 882.159 437.169ZM889.947 444.203L889.947 444.203C889.976 442.138 890.533 440.326 891.356 439.068C892.189 437.794 893.189 437.222 894.106 437.24C895.024 437.259 896.009 437.871 896.807 439.179C897.595 440.47 898.1 442.303 898.071 444.369C898.042 446.435 897.485 448.247 896.662 449.505C895.829 450.779 894.829 451.351 893.912 451.332C892.994 451.314 892.009 450.701 891.211 449.394C890.424 448.103 889.918 446.269 889.947 444.203ZM861.761 446.41C860.501 444.738 859.817 442.959 859.689 441.467C859.558 439.956 859.996 438.91 860.734 438.386C861.472 437.862 862.632 437.774 864.076 438.352C865.502 438.923 867.042 440.095 868.302 441.767C869.562 443.44 870.246 445.219 870.375 446.711C870.505 448.222 870.067 449.268 869.329 449.792C868.591 450.316 867.431 450.404 865.987 449.826C864.561 449.255 863.021 448.083 861.761 446.41ZM857.295 462.846C855.636 461.545 854.503 459.995 853.981 458.583C853.454 457.153 853.598 456.03 854.17 455.338C854.742 454.645 855.836 454.268 857.382 454.464C858.909 454.657 860.705 455.403 862.364 456.704C864.024 458.005 865.157 459.555 865.678 460.967C866.206 462.397 866.062 463.519 865.49 464.212C864.918 464.905 863.824 465.282 862.278 465.086C860.751 464.893 858.955 464.146 857.295 462.846Z" stroke="#156B67" stroke-opacity="0.3" stroke-width="2"/>
<path d="M144.398 464.617L144.398 464.617C145.529 466.351 146.117 468.315 146.152 470.369L146.152 470.369C146.228 474.796 143.406 478.918 139.18 480.547L139.18 480.548C138.574 480.782 137.948 480.965 137.31 481.095L137.28 481.101L137.279 481.102C136.144 481.331 134.977 481.387 133.823 481.268C131.521 481.023 129.205 481.496 127.205 482.616C126.19 483.181 125.09 483.587 123.945 483.819L123.944 483.819C123.311 483.948 122.669 484.024 122.022 484.046L122.021 484.046C117.465 484.211 113.143 481.535 111.357 477.449L110.43 477.829L111.357 477.449C110.532 475.562 110.246 473.542 110.551 471.518L109.553 471.36L110.551 471.518C110.858 469.484 111.768 467.585 113.119 466.045C114.339 464.654 115.164 463.005 115.561 461.22L115.561 461.22C116.463 457.162 119.72 453.797 124.149 452.894C128.578 451.992 132.963 453.799 135.489 457.152L136.255 456.601L135.489 457.152C136.604 458.631 138.053 459.82 139.755 460.617L139.755 460.617C141.636 461.497 143.264 462.877 144.398 464.617ZM132.35 437.828L132.35 437.828C132.388 439.896 131.891 441.728 131.109 443.014C130.318 444.318 129.334 444.927 128.411 444.938C127.492 444.949 126.493 444.367 125.658 443.089C124.833 441.825 124.27 440.008 124.232 437.941C124.194 435.873 124.691 434.042 125.473 432.755C126.264 431.451 127.248 430.842 128.17 430.831C129.09 430.82 130.089 431.402 130.924 432.68C131.749 433.944 132.312 435.761 132.35 437.828ZM138.278 446.422L138.278 446.422C138.79 444.418 139.757 442.775 140.856 441.73C141.969 440.671 143.082 440.333 143.975 440.555C144.863 440.775 145.674 441.586 146.143 443.031C146.606 444.459 146.669 446.354 146.157 448.359C145.644 450.363 144.677 452.006 143.579 453.051C142.466 454.109 141.353 454.448 140.46 454.226C139.572 454.005 138.761 453.195 138.292 451.75C137.828 450.322 137.765 448.427 138.278 446.422ZM110.314 442.327C109.48 440.422 109.232 438.541 109.456 437.061C109.683 435.564 110.354 434.637 111.203 434.287C112.052 433.937 113.205 434.111 114.472 434.991C115.724 435.862 116.947 437.341 117.781 439.245C118.614 441.149 118.863 443.031 118.639 444.511C118.412 446.008 117.741 446.935 116.891 447.285C116.042 447.635 114.89 447.461 113.623 446.58C112.37 445.71 111.148 444.231 110.314 442.327ZM102.111 457.338C100.802 455.706 100.063 453.949 99.887 452.462C99.7088 450.959 100.11 449.895 100.835 449.343C101.561 448.789 102.721 448.667 104.179 449.199C105.619 449.725 107.192 450.848 108.501 452.48C109.81 454.112 110.549 455.868 110.725 457.355C110.903 458.859 110.503 459.922 109.777 460.475C109.051 461.028 107.891 461.151 106.433 460.618C104.993 460.092 103.42 458.969 102.111 457.338Z" stroke="#156B67" stroke-opacity="0.8" stroke-width="2"/>
<path d="M370.398 73.6171L370.398 73.6172C371.529 75.3514 372.117 77.3154 372.152 79.3692L372.152 79.3692C372.228 83.7959 369.406 87.918 365.18 89.5473L365.18 89.5476C364.574 89.7818 363.948 89.9651 363.31 90.0955L363.28 90.1015L363.279 90.1017C362.144 90.3314 360.977 90.3873 359.823 90.2676C357.521 90.0233 355.205 90.4956 353.205 91.6158C352.19 92.1807 351.09 92.5866 349.945 92.8187L349.944 92.8189C349.311 92.9476 348.669 93.0237 348.022 93.0464L348.021 93.0464C343.465 93.211 339.143 90.5349 337.357 86.4488L336.43 86.8288L337.357 86.4488C336.532 84.5622 336.246 82.5415 336.551 80.5184L335.553 80.3604L336.551 80.5184C336.858 78.4838 337.768 76.5853 339.119 75.0446C340.339 73.6544 341.164 72.0046 341.561 70.2198L341.561 70.2197C342.463 66.1624 345.72 62.7968 350.149 61.8945C354.578 60.9925 358.963 62.7993 361.489 66.1521L362.255 65.6014L361.489 66.1522C362.604 67.6313 364.053 68.8198 365.755 69.6169L365.755 69.617C367.636 70.4975 369.264 71.877 370.398 73.6171ZM358.35 46.8284L358.35 46.8285C358.388 48.8957 357.891 50.7275 357.109 52.0145C356.318 53.3176 355.334 53.9275 354.411 53.9384C353.492 53.9494 352.493 53.3675 351.658 52.089C350.833 50.825 350.27 49.0082 350.232 46.9407C350.194 44.8735 350.691 43.0416 351.473 41.7546C352.264 40.4514 353.248 39.8416 354.17 39.8307C355.09 39.8197 356.089 40.4017 356.924 41.6801C357.749 42.9441 358.312 44.7609 358.35 46.8284ZM364.278 55.4221L364.278 55.4221C364.79 53.4176 365.757 51.7749 366.856 50.7301C367.969 49.6714 369.082 49.3332 369.975 49.5549C370.863 49.7755 371.674 50.5861 372.143 52.0307C372.606 53.4586 372.669 55.3539 372.157 57.3587C371.644 59.3632 370.677 61.0059 369.579 62.0508C368.466 63.1094 367.353 63.4477 366.46 63.2259C365.572 63.0054 364.761 62.1947 364.292 60.75C363.828 59.3222 363.765 57.4269 364.278 55.4221ZM336.314 51.3266C335.48 49.4223 335.232 47.541 335.456 46.0613C335.683 44.5642 336.354 43.6371 337.203 43.2868C338.052 42.9368 339.205 43.1112 340.472 43.9914C341.724 44.8616 342.947 46.341 343.781 48.2453C344.614 50.1495 344.863 52.0308 344.639 53.5106C344.412 55.0076 343.741 55.9347 342.891 56.285C342.042 56.6351 340.89 56.4606 339.623 55.5804C338.37 54.7102 337.148 53.2308 336.314 51.3266ZM328.111 66.3376C326.802 64.7059 326.063 62.9492 325.887 61.4624C325.709 59.9587 326.11 58.895 326.835 58.3427C327.561 57.7893 328.721 57.6667 330.179 58.1991C331.619 58.7251 333.192 59.8483 334.501 61.4799C335.81 63.1117 336.549 64.8684 336.725 66.3551C336.903 67.8589 336.503 68.9225 335.777 69.4748C335.051 70.0283 333.891 70.1508 332.433 69.6185C330.993 69.0924 329.42 67.9693 328.111 66.3376Z" stroke="#156B67" stroke-opacity="0.8" stroke-width="2"/>
<path d="M69.3982 94.6172L69.3983 94.6172C70.5289 96.3515 71.1166 98.3154 71.1517 100.369L71.1517 100.369C71.2277 104.796 68.4063 108.918 64.1804 110.547L64.1797 110.548C63.5736 110.782 62.948 110.965 62.3095 111.096L62.2799 111.102L62.2792 111.102C61.1435 111.331 59.9774 111.387 58.8227 111.268C56.5212 111.023 54.2048 111.496 52.2047 112.616C51.19 113.181 50.0901 113.587 48.9449 113.819L48.944 113.819C48.3115 113.948 47.6686 114.024 47.0224 114.046L47.0213 114.046C42.4655 114.211 38.1427 111.535 36.3568 107.449L35.43 107.829L36.3568 107.449C35.5321 105.562 35.2464 103.542 35.5513 101.518L34.5528 101.36L35.5513 101.518C35.8578 99.4839 36.7684 97.5853 38.1193 96.0447C39.3387 94.6545 40.1637 93.0047 40.5607 91.2198L40.5607 91.2198C41.4631 87.1625 44.7197 83.7969 49.1494 82.8946C53.5778 81.9926 57.9635 83.7993 60.4895 87.1522L61.255 86.6015L60.4895 87.1522C61.6039 88.6314 63.0535 89.8199 64.7552 90.617L64.7553 90.617C66.6358 91.4976 68.264 92.877 69.3982 94.6172ZM57.35 67.8285L57.35 67.8285C57.3877 69.8957 56.891 71.7276 56.1095 73.0146C55.3181 74.3177 54.3344 74.9275 53.4115 74.9385C52.4924 74.9494 51.4934 74.3675 50.6584 73.0891C49.8328 71.8251 49.2696 70.0083 49.232 67.9408C49.1944 65.8736 49.6911 64.0417 50.4726 62.7547C51.2639 61.4515 52.2476 60.8417 53.1704 60.8307C54.0895 60.8198 55.0885 61.4017 55.9235 62.6802C56.7491 63.9442 57.3123 65.761 57.35 67.8285ZM63.2779 76.4222L63.2779 76.4222C63.7901 74.4177 64.7572 72.775 65.8557 71.7301C66.9686 70.6715 68.0819 70.3332 68.9747 70.555C69.8627 70.7755 70.674 71.5862 71.1428 73.0308C71.6061 74.4586 71.6691 76.354 71.1568 78.3588C70.6445 80.3633 69.6774 82.006 68.579 83.0508C67.4661 84.1095 66.3527 84.4478 65.46 84.226C64.5719 84.0054 63.7606 83.1948 63.2918 81.7501C62.8285 80.3222 62.7655 78.4269 63.2779 76.4222ZM35.3141 72.3266C34.4804 70.4224 34.2316 68.5411 34.4558 67.0613C34.6826 65.5642 35.3538 64.6372 36.2034 64.2869C37.0523 63.9368 38.2045 64.1112 39.4716 64.9915C40.7242 65.8616 41.9469 67.341 42.7806 69.2454C43.6143 71.1496 43.8631 73.0309 43.639 74.5106C43.4122 76.0077 42.741 76.9347 41.8914 77.2851C41.0423 77.6351 39.89 77.4606 38.623 76.5804C37.3705 75.7102 36.1478 74.2309 35.3141 72.3266ZM27.1112 87.3377C25.8018 85.7059 25.0632 83.9492 24.887 82.4625C24.7088 80.9587 25.1096 79.8951 25.8347 79.3428C26.5613 78.7893 27.7212 78.6668 29.1789 79.1991C30.6193 79.7252 32.1916 80.8483 33.5009 82.48C34.8103 84.1117 35.5489 85.8684 35.7251 87.3552C35.9033 88.8589 35.5025 89.9226 34.7774 90.4749C34.0508 91.0283 32.8909 91.1509 31.4332 90.6185C29.9928 90.0925 28.4205 88.9694 27.1112 87.3377Z" stroke="#156B67" stroke-opacity="0.5" stroke-width="2"/>
</svg>
