<svg width="42" height="42" viewBox="0 0 42 42" fill="none" xmlns="http://www.w3.org/2000/svg">
<g id="icon-park-solid:check-one">
<path id="Vector" d="M18.9808 17.8745C21.6419 17.8745 23.8759 19.5759 24.507 21.8764C25.3004 24.7607 25.1932 27.9217 28.6809 29.5631C31.7766 30.5571 32.9478 31.8063 32.9478 35.1553C32.9478 37.8283 30.5239 40.6696 27.3988 41.0242C23.9044 41.5194 21.1845 40.872 18.9799 39.6864C16.7753 40.872 14.0544 41.5203 10.5648 41.0242C7.43771 40.6696 5.01482 37.8185 5.01482 35.1553C5.01482 31.8779 6.2647 30.4908 9.35476 29.5407C13.1575 27.7077 12.647 24.4948 13.4954 21.7349C13.8442 20.6182 14.5674 19.6383 15.5564 18.9423C16.5454 18.2463 17.747 17.8716 18.9808 17.8745ZM36.4022 15.883C35.4598 15.1102 31.6134 18.1271 30.4034 19.6189C29.6679 20.415 29.2105 21.5093 29.2105 22.7164C29.2105 25.144 31.0516 27.1122 33.3169 27.1122C35.0404 27.1122 36.5152 25.9812 37.1254 24.373C38.3107 21.4806 38.3762 17.5002 36.4022 15.883ZM1.55749 15.883C-0.413658 17.5002 -0.350073 21.4806 0.83717 24.373C1.4474 25.9812 2.92125 27.1122 4.64375 27.1122C6.91099 27.1122 8.75022 25.144 8.75022 22.7164C8.75022 21.5093 8.29373 20.415 7.55823 19.6189C6.34726 18.1271 2.50178 15.1102 1.55749 15.883ZM24.0439 0.0269375C33.6178 1.55998 32.9459 16.774 25.2805 15.5481C23.0693 15.1935 21.4274 13.2933 21.1778 11.0233C20.9244 8.71479 20.3541 -0.562282 24.0439 0.0269375ZM13.9177 0.0269375C17.6085 -0.563177 17.0372 8.71389 16.7838 11.0224C16.5342 13.2933 14.8943 15.1926 12.683 15.5472C5.01577 16.7749 4.3448 1.55998 13.9177 0.0269375Z" fill="#166B68"/>
<g id="Group">
<path id="Vector_2" d="M32.4669 39.8967C33.3366 39.8978 34.1979 39.727 35.0013 39.3942C35.8048 39.0614 36.5346 38.5731 37.1487 37.9573C37.7645 37.3432 38.2528 36.6134 38.5856 35.8099C38.9184 35.0065 39.0892 34.1452 39.0881 33.2755C39.0892 32.4058 38.9184 31.5445 38.5856 30.7411C38.2528 29.9376 37.7645 29.2078 37.1487 28.5936C36.5346 27.9779 35.8048 27.4896 35.0013 27.1568C34.1979 26.824 33.3366 26.6532 32.4669 26.6543C31.5972 26.6532 30.7359 26.824 29.9325 27.1568C29.129 27.4896 28.3992 27.9779 27.7851 28.5936C27.1693 29.2078 26.681 29.9376 26.3482 30.7411C26.0154 31.5445 25.8446 32.4058 25.8457 33.2755C25.8446 34.1452 26.0154 35.0065 26.3482 35.8099C26.681 36.6134 27.1693 37.3432 27.7851 37.9573C28.3992 38.5731 29.129 39.0614 29.9325 39.3942C30.7359 39.727 31.5972 39.8978 32.4669 39.8967Z" fill="#166B68" stroke="white" stroke-width="2" stroke-linejoin="round"/>
<path id="Vector_3" d="M29.8184 33.2757L31.8047 35.262L35.7774 31.2893" stroke="white" stroke-width="2" stroke-linecap="round" stroke-linejoin="round"/>
</g>
</g>
</svg>
