<svg width="60" height="60" viewBox="0 0 60 60" fill="none" xmlns="http://www.w3.org/2000/svg">
<circle cx="30" cy="30" r="30" fill="#D1D9C1" fill-opacity="0.6"/>
<path d="M51.125 29.5L46.55 24.2875L47.1875 17.3875L40.4187 15.85L36.875 9.88745L30.5 12.625L24.125 9.88745L20.5812 15.85L13.8125 17.3687L14.45 24.2687L9.875 29.5L14.45 34.7125L13.8125 41.6312L20.5812 43.1687L24.125 49.1312L30.5 46.375L36.875 49.1124L40.4187 43.15L47.1875 41.6124L46.55 34.7125L51.125 29.5ZM26.75 38.875L19.25 31.375L21.8937 28.7312L26.75 33.5687L39.1062 21.2125L41.75 23.875L26.75 38.875Z" fill="#588C7E"/>
</svg>
