<svg width="348" height="561" viewBox="0 0 348 561" fill="none" xmlns="http://www.w3.org/2000/svg">
<g filter="url(#filter0_d_463_1488)">
<path d="M351.158 514.772C403.99 510.665 453.74 498.172 494.668 479.611C525.594 465.589 561.75 456.132 600.547 451.634C705.776 439.436 795.701 394.6 823.598 333.304C851.496 272.009 809.711 211.053 726.093 175.75C695.273 162.737 671.085 145.899 655.517 126.192C634.907 100.112 601.187 77.4044 557.493 61.4888C514.103 45.6836 464.259 37.3916 411.803 36.7046C297.433 35.2052 188.214 74.1636 141.867 132.785C135.298 141.069 129.996 149.625 126.018 158.359C118.778 174.198 116.045 190.487 117.917 206.634C121.121 233.233 108.954 259.975 83.1592 283.027C67.5629 297.04 55.965 312.247 48.788 328.095L48.7832 328.108C44.7813 336.923 42.1355 345.885 40.8742 354.9C31.972 417.928 95.8358 477.863 199.1 503.066C246.714 514.688 298.573 518.861 351.158 514.772Z" fill="white"/>
</g>
<defs>
<filter id="filter0_d_463_1488" x="0.0495911" y="0.66272" width="872.163" height="559.64" filterUnits="userSpaceOnUse" color-interpolation-filters="sRGB">
<feFlood flood-opacity="0" result="BackgroundImageFix"/>
<feColorMatrix in="SourceAlpha" type="matrix" values="0 0 0 0 0 0 0 0 0 0 0 0 0 0 0 0 0 0 127 0" result="hardAlpha"/>
<feOffset dy="4"/>
<feGaussianBlur stdDeviation="20"/>
<feComposite in2="hardAlpha" operator="out"/>
<feColorMatrix type="matrix" values="0 0 0 0 0 0 0 0 0 0 0 0 0 0 0 0 0 0 0.25 0"/>
<feBlend mode="normal" in2="BackgroundImageFix" result="effect1_dropShadow_463_1488"/>
<feBlend mode="normal" in="SourceGraphic" in2="effect1_dropShadow_463_1488" result="shape"/>
</filter>
</defs>
</svg>
