<svg width="352" height="557" viewBox="0 0 352 557" fill="none" xmlns="http://www.w3.org/2000/svg">
<g filter="url(#filter0_d_463_1489)">
<path d="M12.0713 512.195C-40.2318 510.719 -89.9132 500.713 -131.195 484.209C-162.389 471.741 -198.513 464.093 -236.995 461.528C-341.371 454.574 -432.276 414.262 -462.832 354.429C-493.388 294.596 -455.212 231.639 -374.508 192.226C-344.762 177.697 -321.747 159.678 -307.374 139.223C-288.346 112.151 -256.222 87.7957 -213.925 69.7288C-171.922 51.7871 -123.182 41.0288 -71.4873 37.7361C41.2215 30.5556 150.861 64.0385 199.478 120.284C206.368 128.232 212.021 136.513 216.378 145.039C224.304 160.498 227.809 176.631 226.765 192.852C224.927 219.577 238.255 245.681 264.837 267.423C280.913 280.643 293.106 295.254 300.971 310.726L300.976 310.74C305.36 319.344 308.415 328.164 310.106 337.104C322.017 399.612 262.017 462.646 161.438 492.948C115.062 506.923 64.1296 513.667 12.0713 512.195Z" fill="white"/>
</g>
<defs>
<filter id="filter0_d_463_1489" x="-513.328" y="0.772461" width="864.933" height="555.621" filterUnits="userSpaceOnUse" color-interpolation-filters="sRGB">
<feFlood flood-opacity="0" result="BackgroundImageFix"/>
<feColorMatrix in="SourceAlpha" type="matrix" values="0 0 0 0 0 0 0 0 0 0 0 0 0 0 0 0 0 0 127 0" result="hardAlpha"/>
<feOffset dy="4"/>
<feGaussianBlur stdDeviation="20"/>
<feComposite in2="hardAlpha" operator="out"/>
<feColorMatrix type="matrix" values="0 0 0 0 0 0 0 0 0 0 0 0 0 0 0 0 0 0 0.25 0"/>
<feBlend mode="normal" in2="BackgroundImageFix" result="effect1_dropShadow_463_1489"/>
<feBlend mode="normal" in="SourceGraphic" in2="effect1_dropShadow_463_1489" result="shape"/>
</filter>
</defs>
</svg>
