<svg width="32" height="31" viewBox="0 0 32 31" fill="none" xmlns="http://www.w3.org/2000/svg">
<g id="devicon:google" clip-path="url(#clip0_715_1351)">
<path id="Vector" d="M11.1289 1.01958C8.02445 2.09409 5.34714 4.13355 3.49027 6.83838C1.63341 9.54322 0.694848 12.7709 0.812459 16.0472C0.93007 19.3236 2.09765 22.476 4.1437 25.0414C6.18976 27.6067 9.00643 29.4499 12.18 30.3001C14.7529 30.9624 17.4485 30.9915 20.0352 30.3848C22.3784 29.8597 24.5448 28.7364 26.3222 27.125C28.1721 25.3966 29.5149 23.1979 30.2061 20.7651C30.9574 18.1196 31.0911 15.3375 30.5969 12.6325H16.1489V18.6121H24.5162C24.349 19.5658 23.9906 20.476 23.4626 21.2883C22.9345 22.1006 22.2477 22.7983 21.4431 23.3396C20.4213 24.0139 19.2696 24.4676 18.0617 24.6716C16.8502 24.8964 15.6077 24.8964 14.3963 24.6716C13.1684 24.4183 12.0069 23.9127 10.9857 23.187C9.34513 22.0283 8.11328 20.3823 7.46594 18.4837C6.80766 16.5496 6.80766 14.4528 7.46594 12.5186C7.92673 11.1629 8.68848 9.92853 9.69432 8.90763C10.8454 7.71788 12.3027 6.86743 13.9063 6.44961C15.5099 6.03179 17.1979 6.06273 18.785 6.53903C20.0249 6.91876 21.1587 7.58223 22.0961 8.47653C23.0395 7.54008 23.9814 6.6012 24.9216 5.65989C25.4071 5.15372 25.9363 4.67177 26.4145 4.15349C24.9836 2.82503 23.3041 1.79133 21.4722 1.11161C18.1362 -0.0969271 14.486 -0.129405 11.1289 1.01958Z" fill="white"/>
<path id="Vector_2" d="M11.1289 1.01966C14.4857 -0.130108 18.1359 -0.0984846 21.4722 1.10927C23.3044 1.7936 24.9832 2.83228 26.412 4.16568C25.9265 4.68396 25.4143 5.16833 24.9191 5.67208C23.9773 6.61016 23.0362 7.545 22.096 8.47661C21.1586 7.58231 20.0248 6.91884 18.785 6.53911C17.1984 6.06113 15.5104 6.02841 13.9064 6.44452C12.3023 6.86064 10.8442 7.70951 9.69184 8.89802C8.68599 9.91893 7.92425 11.1533 7.46346 12.509L2.4314 8.62193C4.23257 5.05829 7.35119 2.33237 11.1289 1.01966Z" fill="#E33629"/>
<path id="Vector_3" d="M1.09634 12.4726C1.36681 11.1352 1.81584 9.84009 2.43143 8.62183L7.46349 12.5186C6.80521 14.4527 6.80521 16.5496 7.46349 18.4837C5.78695 19.7754 4.10959 21.0735 2.43143 22.3781C0.890378 19.3176 0.420384 15.8305 1.09634 12.4726Z" fill="#F8BD00"/>
<path id="Vector_4" d="M16.1488 12.6301H30.5969C31.0911 15.3352 30.9574 18.1173 30.2061 20.7628C29.5148 23.1955 28.1721 25.3942 26.3222 27.1226C24.6982 25.8584 23.067 24.6039 21.443 23.3397C22.2482 22.7978 22.9353 22.0994 23.4634 21.2862C23.9915 20.4731 24.3495 19.5619 24.5162 18.6073H16.1488C16.1464 16.6165 16.1488 14.6233 16.1488 12.6301Z" fill="#587DBD"/>
<path id="Vector_5" d="M2.42902 22.3781C4.10718 21.0865 5.78453 19.7883 7.46108 18.4838C8.10971 20.383 9.34332 22.0291 10.9857 23.187C12.0101 23.9094 13.1741 24.4109 14.4035 24.6595C15.615 24.8843 16.8575 24.8843 18.0689 24.6595C19.2768 24.4556 20.4286 24.0018 21.4504 23.3275C23.0743 24.5917 24.7055 25.8463 26.3295 27.1105C24.5523 28.7228 22.3859 29.8469 20.0424 30.3728C17.4558 30.9794 14.7602 30.9504 12.1873 30.288C10.1524 29.7459 8.25163 28.7903 6.6042 27.481C4.86048 26.0998 3.43629 24.3592 2.42902 22.3781Z" fill="#319F43"/>
</g>
<defs>
<clipPath id="clip0_715_1351">
<rect width="31.0711" height="31" fill="white" transform="translate(0.304993)"/>
</clipPath>
</defs>
</svg>
