<svg width="93" height="93" viewBox="0 0 93 93" fill="none" xmlns="http://www.w3.org/2000/svg">
<g clip-path="url(#clip0_1440_1873)">
<path d="M63.9375 43.5938C63.9375 42.823 63.6313 42.0837 63.0863 41.5387C62.5413 40.9937 61.802 40.6875 61.0313 40.6875C60.2605 40.6875 59.5213 40.9937 58.9762 41.5387C58.4312 42.0837 58.125 42.823 58.125 43.5938V59.055L45.3956 64.1351C45.0287 64.2674 44.6922 64.4722 44.4061 64.7373C44.12 65.0024 43.8902 65.3224 43.7303 65.6782C43.5705 66.034 43.4839 66.4183 43.4757 66.8082C43.4676 67.1982 43.538 67.5858 43.6828 67.948C43.8276 68.3101 44.0438 68.6395 44.3185 68.9163C44.5933 69.1931 44.9209 69.4119 45.282 69.5594C45.643 69.7069 46.0301 69.7803 46.4201 69.7751C46.8101 69.7699 47.1951 69.6862 47.5521 69.5291L62.0833 63.7166C62.6221 63.5007 63.0838 63.1284 63.4091 62.6478C63.7344 62.1671 63.9083 61.6 63.9084 61.0196V43.5821L63.9375 43.5938Z" fill="#166B68"/>
<path fill-rule="evenodd" clip-rule="evenodd" d="M81.3751 20.3435C81.3751 21.1143 81.0689 21.8535 80.5239 22.3985C79.9789 22.9436 79.2396 23.2498 78.4688 23.2498C77.6981 23.2498 76.9588 22.9436 76.4138 22.3985C75.8688 21.8535 75.5626 21.1143 75.5626 20.3435C75.5626 19.5727 75.2564 18.8335 74.7114 18.2885C74.1664 17.7435 73.4271 17.4373 72.6563 17.4373H43.5938C39.932 17.4373 36.5026 15.7168 34.2938 12.7873L29.0626 5.81227H8.71884C7.94806 5.81227 7.20884 6.11846 6.66381 6.66349C6.11879 7.20851 5.81259 7.94773 5.81259 8.71852V61.031C5.81259 61.8018 6.11879 62.541 6.66381 63.086C7.20884 63.6311 7.94806 63.9373 8.71884 63.9373H11.6251L22.262 32.0266C22.5513 31.158 23.1068 30.4025 23.8496 29.8673C24.5924 29.3321 25.4849 29.0443 26.4005 29.0448H88.9837C89.4439 29.0452 89.8975 29.1548 90.3071 29.3648C90.7167 29.5747 91.0705 29.8789 91.3396 30.2524C91.6086 30.6258 91.7851 31.0578 91.8545 31.5128C91.9239 31.9678 91.8842 32.4328 91.7388 32.8695L88.0595 43.9132C91.1236 48.7471 92.8331 54.3153 93.0093 60.0359C93.1854 65.7564 91.8218 71.4193 89.0609 76.4326C86.3001 81.4459 82.2433 85.6256 77.3146 88.5349C72.3859 91.4441 66.7662 92.9761 61.043 92.9707C46.3955 92.9707 34.073 83.1476 30.2948 69.7207H8.73047C6.41811 69.7207 4.20046 68.8021 2.56538 67.167C0.930299 65.532 0.0117188 63.3143 0.0117188 61.002V8.68945C0.0117188 6.3771 0.930299 4.15945 2.56538 2.52437C4.20046 0.889283 6.41811 -0.0292969 8.73047 -0.0292969H29.0742C29.9766 -0.0292969 30.8666 0.180797 31.6736 0.584345C32.4807 0.987894 33.1828 1.57381 33.7242 2.2957L38.9555 9.2707C39.4969 9.99259 40.1989 10.5785 41.006 10.9821C41.8131 11.3856 42.7031 11.5957 43.6055 11.5957H72.668C74.9803 11.5957 77.198 12.5143 78.8331 14.1494C80.4681 15.7844 81.3867 18.0021 81.3867 20.3145L81.3751 20.3435ZM61.0313 87.1873C75.5045 87.1873 87.1876 75.5041 87.1876 61.031C87.1876 46.5579 75.5045 34.8748 61.0313 34.8748C46.5582 34.8748 34.8751 46.5579 34.8751 61.031C34.8751 75.5041 46.5582 87.1873 61.0313 87.1873Z" fill="#166B68"/>
</g>
<defs>
<clipPath id="clip0_1440_1873">
<rect width="93" height="93" fill="white"/>
</clipPath>
</defs>
</svg>
