<svg width="113" height="85" viewBox="0 0 113 85" fill="none" xmlns="http://www.w3.org/2000/svg">
<path d="M102.051 62.2798H100.438L99.8663 61.7458C101.937 59.4199 103.075 56.4504 103.072 53.3794C103.072 50.8367 102.294 48.3511 100.835 46.2369C99.3769 44.1227 97.3041 42.4749 94.8789 41.5018C92.4537 40.5288 89.7851 40.2742 87.2105 40.7702C84.6359 41.2663 82.271 42.4907 80.4148 44.2887C78.5586 46.0867 77.2946 48.3774 76.7825 50.8713C76.2703 53.3651 76.5332 55.9501 77.5377 58.2992C78.5423 60.6484 80.2434 62.6562 82.4261 64.0689C84.6087 65.4816 87.1748 66.2356 89.7998 66.2356C93.0872 66.2356 96.1092 65.0686 98.437 63.1303L98.9883 63.6841V65.2466L109.198 75.1162L112.24 72.1692L102.051 62.2798ZM89.7998 62.2798C84.7155 62.2798 80.6112 58.3043 80.6112 53.3794C80.6112 48.4545 84.7155 44.4789 89.7998 44.4789C94.8841 44.4789 98.9883 48.4545 98.9883 53.3794C98.9883 58.3043 94.8841 62.2798 89.7998 62.2798Z" fill="#166B68"/>
<path d="M53.1969 26.3135L57.1665 3.28711C57.493 1.39453 59.1942 0 61.1876 0C62.4764 0 63.6793 0.581055 64.4525 1.57715L67.3567 5.3125H76.3096C78.492 5.3125 80.5885 6.15918 82.135 7.65332L85.2282 10.625H94.8513C97.1368 10.625 98.9755 12.4014 98.9755 14.6094V18.5938C98.9755 25.9316 92.8236 31.875 85.2282 31.875H73.3196L72.4432 36.9385L53.1969 26.3135ZM71.4809 42.5166V79.6875C71.4809 82.626 69.0235 85 65.9819 85H60.483C57.4414 85 54.9841 82.626 54.9841 79.6875V60.5625C50.8599 62.6045 46.1858 63.75 41.2368 63.75C36.2877 63.75 31.6136 62.6045 27.4894 60.5625V79.6875C27.4894 82.626 25.0321 85 21.9905 85H16.4916C13.45 85 10.9926 82.626 10.9926 79.6875V41.4707C6.04361 39.6611 2.15999 35.6104 0.819627 30.4307L0.166629 27.8574C-0.572289 25.0186 1.21486 22.1299 4.17054 21.416C7.12621 20.7021 10.0991 22.4287 10.838 25.2842L11.5082 27.8574C12.1096 30.2148 14.3092 31.875 16.8353 31.875H52.2002L71.4809 42.5166ZM79.7292 13.2812C79.7292 12.5768 79.4396 11.9011 78.924 11.403C78.4083 10.9049 77.709 10.625 76.9798 10.625C76.2506 10.625 75.5512 10.9049 75.0356 11.403C74.52 11.9011 74.2303 12.5768 74.2303 13.2812C74.2303 13.9857 74.52 14.6614 75.0356 15.1595C75.5512 15.6576 76.2506 15.9375 76.9798 15.9375C77.709 15.9375 78.4083 15.6576 78.924 15.1595C79.4396 14.6614 79.7292 13.9857 79.7292 13.2812Z" fill="#166B68"/>
</svg>
