<svg width="27" height="27" viewBox="0 0 27 27" fill="none" xmlns="http://www.w3.org/2000/svg">
<g id="game-icons:achievement">
<path id="Vector" d="M16.1351 15.7578L17.3324 15.8834V25.6289L14.0253 22.0975V16.4794L14.9858 16.9485L16.1351 15.7578ZM10.8643 15.7578L9.66639 15.8834V25.6289L12.9734 22.0975V16.4794L12.013 16.9485L10.8643 15.7578ZM19.9336 9.65218L20.321 11.0008L19.1579 11.785L19.0605 13.1862L17.6995 13.525L17.1298 14.8072L15.7344 14.6598L14.7602 15.6663L13.4997 15.0505L12.2392 15.6663L11.265 14.6565L9.86962 14.8039L9.29994 13.5217L7.93886 13.1862L7.84146 11.7869L6.67508 11.0001L7.06257 9.65155L6.24023 8.51544L7.06521 7.3806L6.67508 6.03466L7.83882 5.2505L7.93622 3.85119L9.29994 3.5157L9.86962 2.23356L11.265 2.3809L12.2392 1.37109L13.4997 1.98687L14.7602 1.37109L15.7344 2.3809L17.1298 2.23356L17.6995 3.5157L19.0605 3.85451L19.1579 5.25377L20.321 6.03793L19.9336 7.38656L20.7592 8.51544L19.9336 9.65218ZM17.3383 8.51544C17.3383 7.76197 17.1149 7.02541 16.6962 6.39892C16.2776 5.77243 15.6827 5.28414 14.9865 4.9958C14.2904 4.70745 13.5244 4.63201 12.7854 4.77901C12.0464 4.926 11.3676 5.28883 10.8348 5.82162C10.302 6.35441 9.93921 7.03322 9.79222 7.77222C9.64522 8.51121 9.72066 9.27721 10.009 9.97333C10.2973 10.6694 10.7856 11.2644 11.4121 11.683C12.0386 12.1016 12.7752 12.3251 13.5287 12.3251C14.5385 12.3235 15.5066 11.9216 16.2207 11.2075C16.9348 10.4934 17.3367 9.52534 17.3383 8.51544ZM13.5287 5.75833C12.9834 5.75833 12.4503 5.92003 11.9969 6.22297C11.5435 6.52592 11.1901 6.95651 10.9815 7.4603C10.7728 7.96408 10.7182 8.51843 10.8246 9.05324C10.9309 9.58806 11.1935 10.0793 11.5791 10.4649C11.9647 10.8505 12.4559 11.1131 12.9907 11.2195C13.5256 11.3259 14.0799 11.2713 14.5837 11.0626C15.0875 10.8539 15.5181 10.5006 15.821 10.0472C16.124 9.59378 16.2857 9.06073 16.2857 8.51544C16.2836 7.78505 15.9924 7.08519 15.4758 6.56891C14.9591 6.05262 14.2591 5.76191 13.5287 5.76033V5.75833Z" fill="#588C7E"/>
</g>
</svg>
