<svg width="44" height="44" viewBox="0 0 44 44" fill="none" xmlns="http://www.w3.org/2000/svg">
<path fill-rule="evenodd" clip-rule="evenodd" d="M37.7664 22.2045C39.4132 20.5379 40.3281 18.2878 40.3097 15.9491C40.2914 13.6104 39.3414 11.3748 37.6686 9.73399C36.8404 8.92157 35.8596 8.27963 34.7823 7.84485C33.7051 7.41006 32.5524 7.19094 31.3902 7.19999C29.0429 7.21827 26.7991 8.16484 25.1523 9.83146C24.7051 10.277 24.1368 10.8239 23.4474 11.4721L21.5306 13.2705L19.6138 11.4721C18.9228 10.8223 18.3538 10.2755 17.9066 9.83146C16.2468 8.17776 13.9957 7.24873 11.6484 7.24873C9.30116 7.24873 7.05003 8.17776 5.39025 9.83146C1.9712 13.2403 1.93161 18.7516 5.26448 22.1767L21.5306 38.3833L37.7664 22.2045ZM3.41289 7.86365C4.49429 6.78592 5.77819 5.931 7.19126 5.34772C8.60433 4.76444 10.1189 4.46422 11.6484 4.46422C13.178 4.46422 14.6925 4.76444 16.1056 5.34772C17.5187 5.931 18.8026 6.78592 19.884 7.86365C20.3078 8.28753 20.8567 8.81506 21.5306 9.44625C22.2014 8.81506 22.7502 8.28676 23.1772 7.86133C25.3445 5.66881 28.2971 4.42386 31.3856 4.40036C34.4741 4.37686 37.4454 5.57673 39.646 7.73602C41.8465 9.8953 43.0961 12.8371 43.1197 15.9143C43.1432 18.9915 41.939 21.952 39.7718 24.1445L23.1772 40.6806C22.7405 41.1156 22.1482 41.36 21.5306 41.36C20.913 41.36 20.3207 41.1156 19.884 40.6806L3.28479 24.1422C1.15613 21.9548 -0.0236093 19.0211 0.000358173 15.9744C0.0243257 12.9278 1.25007 10.0128 3.41289 7.859V7.86365Z" fill="#166B68"/>
</svg>
