<svg width="18" height="23" viewBox="0 0 18 23" fill="none" xmlns="http://www.w3.org/2000/svg">
<path d="M8.74374 0C6.46612 0.00273053 4.28255 0.92339 2.67202 2.56002C1.0615 4.19665 0.155524 6.41562 0.152837 8.73016C0.150743 10.6215 0.758658 12.4614 1.88351 13.9683C1.88351 13.9683 2.11781 14.2817 2.15608 14.327L8.74374 22.2222L15.3345 14.323C15.3689 14.281 15.604 13.9683 15.604 13.9683L15.6048 13.9659C16.7288 12.4596 17.3365 10.6206 17.3346 8.73016C17.332 6.41562 16.426 4.19665 14.8155 2.56002C13.2049 0.92339 11.0214 0.00273053 8.74374 0ZM8.74374 11.9048C8.12588 11.9048 7.52189 11.7186 7.00816 11.3697C6.49443 11.0209 6.09402 10.5251 5.85757 9.94503C5.62113 9.36495 5.55926 8.72664 5.6798 8.11082C5.80034 7.49501 6.09787 6.92935 6.53476 6.48538C6.97166 6.0414 7.5283 5.73905 8.13429 5.61656C8.74028 5.49406 9.3684 5.55693 9.93923 5.79721C10.5101 6.03749 10.998 6.44438 11.3412 6.96644C11.6845 7.48851 11.8677 8.10228 11.8677 8.73016C11.8667 9.57179 11.5372 10.3787 10.9516 10.9738C10.3659 11.5689 9.57195 11.9037 8.74374 11.9048Z" fill="#CC4B4B"/>
</svg>
