<svg width="39" height="39" viewBox="0 0 39 39" fill="none" xmlns="http://www.w3.org/2000/svg">
<g id="iconamoon:profile-duotone">
<g id="Group">
<path id="Vector" opacity="0.16" d="M6.5 29.25C6.5 27.5261 7.18482 25.8728 8.40381 24.6538C9.62279 23.4348 11.2761 22.75 13 22.75H26C27.7239 22.75 29.3772 23.4348 30.5962 24.6538C31.8152 25.8728 32.5 27.5261 32.5 29.25C32.5 30.112 32.1576 30.9386 31.5481 31.5481C30.9386 32.1576 30.112 32.5 29.25 32.5H9.75C8.88805 32.5 8.0614 32.1576 7.4519 31.5481C6.84241 30.9386 6.5 30.112 6.5 29.25Z" fill="#443A2E"/>
<path id="Vector_2" d="M6.5 29.25C6.5 27.5261 7.18482 25.8728 8.40381 24.6538C9.62279 23.4348 11.2761 22.75 13 22.75H26C27.7239 22.75 29.3772 23.4348 30.5962 24.6538C31.8152 25.8728 32.5 27.5261 32.5 29.25C32.5 30.112 32.1576 30.9386 31.5481 31.5481C30.9386 32.1576 30.112 32.5 29.25 32.5H9.75C8.88805 32.5 8.0614 32.1576 7.4519 31.5481C6.84241 30.9386 6.5 30.112 6.5 29.25Z" stroke="#443A2E" stroke-width="2" stroke-linejoin="round"/>
<path id="Vector_3" d="M19.5 16.25C22.1924 16.25 24.375 14.0674 24.375 11.375C24.375 8.68261 22.1924 6.5 19.5 6.5C16.8076 6.5 14.625 8.68261 14.625 11.375C14.625 14.0674 16.8076 16.25 19.5 16.25Z" stroke="#443A2E" stroke-width="2"/>
</g>
</g>
</svg>
