<svg width="32" height="32" viewBox="0 0 32 32" fill="none" xmlns="http://www.w3.org/2000/svg">
<g id="mdi-light:phone">
<path id="Vector" d="M26 29.3333C26.5304 29.3333 27.0391 29.1226 27.4142 28.7475C27.7893 28.3725 28 27.8638 28 27.3333V22.6667C28 22.1362 27.7893 21.6275 27.4142 21.2525C27.0391 20.8774 26.5304 20.6667 26 20.6667C24.44 20.6667 22.9067 20.4267 21.44 19.9333C21.0893 19.8227 20.7151 19.8101 20.3578 19.8971C20.0005 19.9841 19.6739 20.1672 19.4133 20.4267L17.4933 22.3467C14.1763 20.5366 11.4501 17.8103 9.64001 14.4933L11.5467 12.5867C12.0933 12.0667 12.2933 11.2933 12.0533 10.5467C11.5733 9.09333 11.3333 7.56 11.3333 6C11.3333 5.46957 11.1226 4.96086 10.7476 4.58579C10.3725 4.21071 9.86377 4 9.33334 4H4.66667C4.13624 4 3.62753 4.21071 3.25246 4.58579C2.87739 4.96086 2.66667 5.46957 2.66667 6C2.66667 18.8667 13.1333 29.3333 26 29.3333ZM4.66667 5.33333H9.33334C9.51015 5.33333 9.67972 5.40357 9.80474 5.5286C9.92977 5.65362 10 5.82319 10 6C10 7.70667 10.2667 9.37333 10.7867 10.96C10.8533 11.1467 10.84 11.4133 10.6267 11.6267L8.00001 14.24C10.2 18.5467 13.4267 21.7733 17.7467 24L20.3467 21.3733C20.5333 21.1867 20.7867 21.1333 21.0267 21.2C22.6267 21.7333 24.2933 22 26 22C26.1768 22 26.3464 22.0702 26.4714 22.1953C26.5964 22.3203 26.6667 22.4899 26.6667 22.6667V27.3333C26.6667 27.5101 26.5964 27.6797 26.4714 27.8047C26.3464 27.9298 26.1768 28 26 28C13.8667 28 4.00001 18.1333 4.00001 6C4.00001 5.82319 4.07024 5.65362 4.19527 5.5286C4.32029 5.40357 4.48986 5.33333 4.66667 5.33333Z" fill="black"/>
</g>
</svg>
