<svg width="30" height="28" viewBox="0 0 30 28" fill="none" xmlns="http://www.w3.org/2000/svg">
<g id="carbon:location-filled">
<path id="Vector" d="M15.271 0C12.7403 0.0030582 10.3141 1.0342 8.52464 2.86722C6.73517 4.70025 5.72853 7.18549 5.72555 9.77778C5.72322 11.8961 6.39868 13.9568 7.64852 15.6444C7.64852 15.6444 7.90885 15.9956 7.95137 16.0462L15.271 24.8889L22.5941 16.0418C22.6323 15.9947 22.8935 15.6444 22.8935 15.6444L22.8943 15.6418C24.1433 13.9547 24.8185 11.8951 24.8164 9.77778C24.8135 7.18549 23.8068 4.70025 22.0174 2.86722C20.2279 1.0342 17.8017 0.0030582 15.271 0ZM15.271 13.3333C14.5845 13.3333 13.9134 13.1248 13.3426 12.7341C12.7718 12.3434 12.3269 11.7881 12.0641 11.1384C11.8014 10.4887 11.7327 9.77383 11.8666 9.08412C12.0006 8.39441 12.3311 7.76087 12.8166 7.26362C13.302 6.76637 13.9205 6.42773 14.5938 6.29054C15.2671 6.15335 15.9651 6.22376 16.5993 6.49287C17.2336 6.76198 17.7757 7.21771 18.1571 7.80242C18.5385 8.38713 18.7421 9.07456 18.7421 9.77778C18.7409 10.7204 18.3749 11.6241 17.7241 12.2906C17.0734 12.9572 16.1912 13.3322 15.271 13.3333Z" fill="#444444"/>
</g>
</svg>
