<svg width="34" height="34" viewBox="0 0 34 34" fill="none" xmlns="http://www.w3.org/2000/svg">
<g id="iconamoon:email-light">
<g id="Group">
<path id="Vector" d="M4.25 7.08334V6.02084C3.96821 6.02084 3.69796 6.13279 3.4987 6.33204C3.29944 6.5313 3.1875 6.80155 3.1875 7.08334H4.25ZM29.75 7.08334H30.8125C30.8125 6.80155 30.7006 6.5313 30.5013 6.33204C30.302 6.13279 30.0318 6.02084 29.75 6.02084V7.08334ZM4.25 8.14584H29.75V6.02084H4.25V8.14584ZM28.6875 7.08334V24.0833H30.8125V7.08334H28.6875ZM26.9167 25.8542H7.08333V27.9792H26.9167V25.8542ZM5.3125 24.0833V7.08334H3.1875V24.0833H5.3125ZM7.08333 25.8542C6.10583 25.8542 5.3125 25.0608 5.3125 24.0833H3.1875C3.1875 25.1166 3.59795 26.1075 4.32856 26.8381C5.05917 27.5687 6.05009 27.9792 7.08333 27.9792V25.8542ZM28.6875 24.0833C28.6875 25.0608 27.8942 25.8542 26.9167 25.8542V27.9792C27.9499 27.9792 28.9408 27.5687 29.6714 26.8381C30.402 26.1075 30.8125 25.1166 30.8125 24.0833H28.6875Z" fill="black"/>
<path id="Vector_2" d="M4.25 7.08334L17 19.8333L29.75 7.08334" stroke="black" stroke-width="1.5" stroke-linecap="round" stroke-linejoin="round"/>
</g>
</g>
</svg>
