<svg width="179" height="68" viewBox="0 0 179 68" fill="none" xmlns="http://www.w3.org/2000/svg">
<path d="M21.283 12.503C21.283 9.67294 23.035 6.83984 25.7455 6.83984C28.456 6.83984 30.2081 9.67294 30.2081 12.503C30.2081 15.3331 28.456 18.1662 25.7455 18.1662C23.035 18.1662 21.283 15.3331 21.283 12.503ZM4.46256 13.6356C1.75207 13.6356 0 16.4687 0 19.2988C0 22.1289 1.75207 24.962 4.46256 24.962C7.17305 24.962 8.92511 22.1289 8.92511 19.2988C8.92511 16.4687 7.17305 13.6356 4.46256 13.6356ZM35.3572 13.6356C32.6467 13.6356 30.8946 16.4687 30.8946 19.2988C30.8946 22.1289 32.6467 24.962 35.3572 24.962C38.0677 24.962 39.8197 22.1289 39.8197 19.2988C39.8197 16.4687 38.0677 13.6356 35.3572 13.6356ZM14.0742 6.83984C11.3637 6.83984 9.61166 9.67294 9.61166 12.503C9.61166 15.3331 11.3637 18.1662 14.0742 18.1662C16.7847 18.1662 18.5368 15.3331 18.5368 12.503C18.5368 9.67294 16.7847 6.83984 14.0742 6.83984ZM19.9099 21.9416C16.2682 21.9416 12.7757 23.5327 10.2006 26.3648C7.62557 29.197 6.17893 33.0382 6.17893 37.0434C6.17893 40.9638 9.50731 43.0841 12.454 43.0841H27.3658C30.3124 43.0841 33.6408 40.9638 33.6408 37.0434C33.6408 33.0382 32.1942 29.197 29.6191 26.3648C27.0441 23.5327 23.5515 21.9416 19.9099 21.9416Z" fill="white"/>
<path d="M56.5795 9.4H64.3555C66.9795 9.4 68.9475 10.104 70.2595 11.512C71.5715 12.92 72.2275 14.984 72.2275 17.704V21.016C72.2275 23.736 71.5715 25.8 70.2595 27.208C68.9475 28.616 66.9795 29.32 64.3555 29.32H61.8595V43H56.5795V9.4ZM64.3555 24.52C65.2195 24.52 65.8595 24.28 66.2755 23.8C66.7235 23.32 66.9475 22.504 66.9475 21.352V17.368C66.9475 16.216 66.7235 15.4 66.2755 14.92C65.8595 14.44 65.2195 14.2 64.3555 14.2H61.8595V24.52H64.3555ZM79.4151 9.4H93.8151V14.2H84.6951V23.08H91.9431V27.88H84.6951V38.2H93.8151V43H79.4151V9.4ZM105.301 14.2H99.7806V9.4H116.101V14.2H110.581V43H105.301V14.2ZM122.977 9.4H128.257V43H122.977V9.4ZM136.531 9.4H150.499V14.2H141.811V23.56H148.627V28.36H141.811V43H136.531V9.4ZM162.199 28.696L155.815 9.4H161.431L165.031 21.736H165.127L168.727 9.4H173.863L167.479 28.696V43H162.199V28.696Z" fill="white"/>
</svg>
