<svg width="89" height="102" viewBox="0 0 89 102" fill="none" xmlns="http://www.w3.org/2000/svg">
<path d="M34.0283 33.4126C38.799 33.4126 42.8041 36.5929 43.9356 40.8931C45.3579 46.2847 45.1657 52.1935 51.4183 55.2618C56.9683 57.1198 59.0679 59.4548 59.0679 65.7152C59.0679 70.7117 54.7225 76.023 49.1197 76.6858C42.8552 77.6115 37.979 76.4013 34.0266 74.185C30.0742 76.4013 25.1963 77.6132 18.9402 76.6858C13.3341 76.023 8.99044 70.6933 8.99044 65.7152C8.99044 59.5888 11.2312 56.9959 16.771 55.2199C23.5885 51.7935 22.6731 45.7876 24.1942 40.6287C24.8195 38.5412 26.116 36.7096 27.8891 35.4085C29.6622 34.1074 31.8163 33.4071 34.0283 33.4126ZM65.261 29.6898C63.5715 28.2453 56.6757 33.8846 54.5064 36.6733C53.1878 38.1614 52.3677 40.2068 52.3677 42.4632C52.3677 47.0011 55.6684 50.6803 59.7297 50.6803C62.8194 50.6803 65.4634 48.5662 66.5574 45.5599C68.6825 40.1533 68.7999 32.7129 65.261 29.6898ZM2.79222 29.6898C-0.741595 32.7129 -0.627601 40.1533 1.50086 45.5599C2.59486 48.5662 5.23714 50.6803 8.32519 50.6803C12.3898 50.6803 15.6872 47.0011 15.6872 42.4632C15.6872 40.2068 14.8688 38.1614 13.5502 36.6733C11.3792 33.8846 4.48512 28.2453 2.79222 29.6898ZM43.1053 0.0503538C60.2691 2.91604 59.0645 31.3553 45.3222 29.0638C41.3579 28.4009 38.4145 24.849 37.967 20.6057C37.5128 16.2904 36.4902 -1.05106 43.1053 0.0503538ZM24.9513 0.0503538C31.5681 -1.05274 30.5438 16.2887 30.0895 20.604C29.6421 24.849 26.702 28.3993 22.7378 29.0621C8.99214 31.357 7.78925 2.91604 24.9513 0.0503538Z" fill="#166B68"/>
<path d="M69.75 70.5C69.75 70.0359 69.5656 69.5908 69.2374 69.2626C68.9092 68.9344 68.4641 68.75 68 68.75C67.5359 68.75 67.0908 68.9344 66.7626 69.2626C66.4344 69.5908 66.25 70.0359 66.25 70.5V79.25H57.5C57.0359 79.25 56.5908 79.4344 56.2626 79.7626C55.9344 80.0908 55.75 80.5359 55.75 81C55.75 81.4641 55.9344 81.9092 56.2626 82.2374C56.5908 82.5656 57.0359 82.75 57.5 82.75H66.25V91.5C66.25 91.9641 66.4344 92.4093 66.7626 92.7374C67.0908 93.0656 67.5359 93.25 68 93.25C68.4641 93.25 68.9092 93.0656 69.2374 92.7374C69.5656 92.4093 69.75 91.9641 69.75 91.5V82.75H78.5C78.9641 82.75 79.4093 82.5656 79.7374 82.2374C80.0656 81.9092 80.25 81.4641 80.25 81C80.25 80.5359 80.0656 80.0908 79.7374 79.7626C79.4093 79.4344 78.9641 79.25 78.5 79.25H69.75V70.5Z" fill="#166B68"/>
</svg>
