<svg width="60" height="60" viewBox="0 0 60 60" fill="none" xmlns="http://www.w3.org/2000/svg">
<g id="Group 29">
<circle id="Ellipse 13" cx="30" cy="30" r="30" fill="#F2AE72" fill-opacity="0.5"/>
<path id="Vector" d="M30 27.9707C32.103 27.9707 33.8685 29.3957 34.3673 31.3225C34.9943 33.7382 34.9095 36.3857 37.6658 37.7605C40.1122 38.593 41.0377 39.6392 41.0377 42.4442C41.0377 44.6829 39.1222 47.0627 36.6525 47.3597C33.891 47.7744 31.7415 47.2322 29.9993 46.2392C28.257 47.2322 26.1068 47.7752 23.3491 47.3597C20.8778 47.0627 18.9631 44.6747 18.9631 42.4442C18.9631 39.6992 19.9508 38.5375 22.3928 37.7417C25.3981 36.2065 24.9946 33.5155 25.6651 31.204C25.9407 30.2687 26.5122 29.448 27.2938 28.865C28.0754 28.2821 29.025 27.9683 30 27.9707ZM43.7677 26.3028C43.023 25.6555 39.9832 28.1822 39.027 29.4317C38.4457 30.0985 38.0842 31.015 38.0842 32.026C38.0842 34.0592 39.5392 35.7077 41.3295 35.7077C42.6915 35.7077 43.857 34.7605 44.3392 33.4135C45.276 30.991 45.3277 27.6572 43.7677 26.3028ZM16.2308 26.3028C14.6731 27.6572 14.7233 30.991 15.6616 33.4135C16.1438 34.7605 17.3086 35.7077 18.6698 35.7077C20.4616 35.7077 21.9151 34.0592 21.9151 32.026C21.9151 31.015 21.5543 30.0985 20.9731 29.4317C20.0161 28.1822 16.9771 25.6555 16.2308 26.3028ZM34.0013 13.0226C41.5672 14.3066 41.0362 27.049 34.9785 26.0223C33.231 25.7253 31.9335 24.1338 31.7363 22.2325C31.536 20.299 31.0853 12.5291 34.0013 13.0226ZM25.9988 13.0226C28.9155 12.5283 28.464 20.2983 28.2638 22.2318C28.0665 24.1338 26.7705 25.7245 25.0231 26.0215C18.9638 27.0498 18.4336 14.3066 25.9988 13.0226Z" fill="#F2AE72"/>
</g>
</svg>
