<svg width="60" height="60" viewBox="0 0 60 60" fill="none" xmlns="http://www.w3.org/2000/svg">
<circle cx="30" cy="30" r="30" fill="#D96459" fill-opacity="0.6"/>
<path fill-rule="evenodd" clip-rule="evenodd" d="M29.9997 33.5366L38.838 42.3749C39.307 42.8439 39.9431 43.1074 40.6063 43.1074C41.2696 43.1074 41.9057 42.8439 42.3747 42.3749C42.8437 41.9059 43.1071 41.2699 43.1071 40.6066C43.1071 39.9434 42.8437 39.3073 42.3747 38.8383L33.533 29.9999L42.373 21.1616C42.6051 20.9294 42.7892 20.6537 42.9148 20.3504C43.0404 20.047 43.105 19.7218 43.1049 19.3935C43.1048 19.0652 43.0401 18.7401 42.9143 18.4368C42.7886 18.1335 42.6044 17.8579 42.3722 17.6258C42.1399 17.3937 41.8643 17.2096 41.5609 17.084C41.2575 16.9584 40.9324 16.8938 40.6041 16.8939C40.2757 16.894 39.9506 16.9587 39.6473 17.0844C39.344 17.2102 39.0684 17.3944 38.8363 17.6266L29.9997 26.4649L21.1613 17.6266C20.9308 17.3877 20.6551 17.1971 20.3501 17.066C20.0452 16.9348 19.7171 16.8657 19.3852 16.8627C19.0533 16.8596 18.724 16.9227 18.4167 17.0483C18.1094 17.1738 17.8302 17.3593 17.5954 17.5939C17.3605 17.8286 17.1748 18.1076 17.0489 18.4148C16.9231 18.722 16.8597 19.0511 16.8624 19.3831C16.8651 19.715 16.9339 20.0431 17.0648 20.3482C17.1957 20.6533 17.386 20.9292 17.6247 21.1599L26.4663 29.9999L17.6263 38.8399C17.3877 39.0707 17.1973 39.3466 17.0665 39.6517C16.9356 39.9568 16.8668 40.2848 16.8641 40.6168C16.8613 40.9487 16.9247 41.2779 17.0506 41.5851C17.1764 41.8923 17.3622 42.1713 17.597 42.4059C17.8319 42.6405 18.1111 42.826 18.4184 42.9516C18.7257 43.0772 19.0549 43.1403 19.3869 43.1372C19.7188 43.1342 20.0468 43.0651 20.3518 42.9339C20.6567 42.8027 20.9325 42.6122 21.163 42.3733L29.9997 33.5366Z" fill="#D96459"/>
</svg>
