<svg width="476" height="470" viewBox="0 0 476 470" fill="none" xmlns="http://www.w3.org/2000/svg">
<rect x="70.834" y="-78" width="674" height="100" transform="rotate(45.1 70.834 -78)" fill="#588C81"/>
<path d="M108.501 53.3004L128.728 33.1445L133.002 37.4333L112.775 57.5892L108.501 53.3004ZM142.548 47.0124L142.436 47.5094C141.597 48.0144 140.662 48.5145 139.63 49.0099C138.616 49.5053 137.57 49.9777 136.492 50.4269C135.424 50.8854 134.387 51.3025 133.383 51.6783L130.364 48.6485C131.046 48.2261 131.755 47.7762 132.493 47.2987C133.239 46.8305 133.977 46.353 134.705 45.8663C135.442 45.3888 136.148 44.9159 136.821 44.4475C137.493 43.9791 138.111 43.5382 138.673 43.1249L142.548 47.0124ZM160.322 73.7865C162.068 75.5389 162.935 77.3128 162.923 79.1082C162.929 80.9036 161.941 82.7893 159.958 84.7654L149.872 94.8158L145.653 90.5823L154.688 81.5797C155.794 80.4768 156.441 79.4559 156.626 78.5171C156.812 77.5783 156.51 76.7123 155.719 75.9191C154.607 74.8031 153.416 74.4097 152.144 74.739C150.883 75.059 149.509 75.9589 148.024 77.4387L140.263 85.1729L136.058 80.9533L145.092 71.9507C145.83 71.2154 146.365 70.5166 146.698 69.8543C147.03 69.192 147.151 68.5661 147.06 67.9767C146.969 67.3873 146.657 66.8251 146.124 66.2901C145.343 65.5062 144.529 65.0858 143.682 65.0291C142.853 64.9724 141.96 65.2287 141.001 65.7978C140.061 66.367 139.042 67.1985 137.945 68.2922L130.667 75.5439L126.463 71.3243L141.93 55.911L145.142 59.1345L143.729 61.6732L143.963 61.9084C144.811 61.6889 145.635 61.6489 146.436 61.7884C147.246 61.9371 148.014 62.2193 148.741 62.6349C149.467 63.0505 150.125 63.5534 150.713 64.1437C151.843 65.2781 152.615 66.4212 153.027 67.5728C153.449 68.7336 153.483 69.9122 153.131 71.1085L153.504 71.482C154.756 71.1528 155.981 71.2286 157.177 71.7094C158.382 72.1995 159.431 72.8919 160.322 73.7865ZM177.029 122.068L180.382 115.803L173.034 108.429L166.758 111.761L162.153 107.14L189.576 94.0399L194.802 99.2833L181.634 126.688L177.029 122.068ZM182.959 111.195L186.201 105.041C186.423 104.636 186.7 104.112 187.033 103.468C187.384 102.824 187.735 102.171 188.086 101.509C188.455 100.847 188.783 100.281 189.069 99.8119C188.599 100.096 188 100.436 187.272 100.831C186.562 101.225 185.885 101.597 185.24 101.946C184.595 102.295 184.134 102.542 183.858 102.689L177.706 105.924L182.959 111.195ZM189.47 134.552L185.265 130.332L206.792 108.881L210.997 113.1L189.47 134.552ZM219.668 133.34C219.879 133.552 220.109 133.81 220.357 134.114C220.623 134.419 220.825 134.677 220.963 134.889L216.689 138.513C216.598 138.329 216.432 138.099 216.193 137.822C215.973 137.545 215.771 137.315 215.587 137.13C215.045 136.586 214.447 136.125 213.794 135.746C213.15 135.377 212.469 135.145 211.751 135.052C211.042 134.95 210.315 135.031 209.569 135.297C208.841 135.563 208.113 136.059 207.384 136.785L199.512 144.629L195.307 140.41L210.774 124.996L213.959 128.192L211.978 131.407L212.185 131.614C213.014 131.395 213.871 131.295 214.755 131.315C215.657 131.335 216.527 131.507 217.364 131.83C218.22 132.154 218.988 132.657 219.668 133.34ZM231.654 145.368C233.078 146.797 234.029 148.304 234.505 149.889C234.99 151.464 234.992 153.052 234.51 154.653C234.029 156.255 233.036 157.804 231.533 159.302L229.485 161.343L219.545 151.368C218.401 152.6 217.819 153.888 217.798 155.232C217.796 156.576 218.387 157.843 219.573 159.033C220.557 160.02 221.559 160.823 222.58 161.441C223.601 162.06 224.746 162.601 226.016 163.063L222.751 166.317C221.61 165.928 220.533 165.401 219.522 164.737C218.519 164.081 217.425 163.159 216.24 161.969C214.696 160.419 213.612 158.76 212.989 156.991C212.375 155.232 212.314 153.427 212.805 151.577C213.305 149.737 214.446 147.929 216.226 146.155C218.034 144.354 219.84 143.16 221.646 142.574C223.47 141.988 225.228 141.945 226.922 142.445C228.624 142.936 230.202 143.91 231.654 145.368ZM228.679 148.387C227.861 147.566 226.918 147.146 225.85 147.125C224.791 147.114 223.658 147.628 222.45 148.666L228.351 154.587C228.969 153.953 229.412 153.282 229.68 152.573C229.957 151.874 230.023 151.165 229.877 150.447C229.74 149.738 229.341 149.051 228.679 148.387ZM249.733 163.455C251.801 165.53 252.935 167.572 253.134 169.579C253.333 171.587 252.51 173.51 250.666 175.348L240.359 185.619L237.422 182.672L238.712 179.76L238.601 179.65C237.607 179.758 236.705 179.757 235.895 179.645C235.084 179.533 234.298 179.26 233.534 178.826C232.771 178.392 231.962 177.746 231.107 176.888C230.197 175.975 229.554 174.98 229.179 173.902C228.812 172.833 228.782 171.733 229.088 170.601C229.403 169.46 230.118 168.333 231.234 167.221C232.876 165.585 234.659 164.957 236.582 165.338C238.515 165.71 240.672 167.007 243.053 169.23L245.81 171.832L246.488 171.156C247.3 170.347 247.683 169.542 247.639 168.741C247.594 167.94 247.195 167.161 246.441 166.405C245.697 165.658 244.86 165.03 243.931 164.522C243.002 164.014 242.018 163.561 240.978 163.164L242.436 158.926C243.687 159.315 244.943 159.893 246.203 160.659C247.472 161.435 248.649 162.367 249.733 163.455ZM243.348 174.286L241.666 172.708C240.269 171.38 239.077 170.673 238.092 170.589C237.117 170.514 236.26 170.843 235.522 171.579C234.876 172.222 234.604 172.871 234.704 173.525C234.813 174.169 235.171 174.796 235.778 175.405C236.678 176.309 237.704 176.803 238.855 176.888C240.015 176.982 241.088 176.537 242.075 175.554L243.348 174.286ZM250.717 196.567C248.998 194.842 248.27 192.765 248.532 190.334C248.812 187.904 250.262 185.384 252.882 182.774C255.529 180.136 258.077 178.69 260.527 178.437C262.985 178.174 265.097 178.928 266.862 180.699C267.597 181.437 268.144 182.188 268.501 182.953C268.859 183.718 269.07 184.473 269.133 185.219C269.205 185.974 269.171 186.706 269.032 187.415L269.17 187.553C269.41 187.204 269.775 186.702 270.264 186.05C270.771 185.397 271.329 184.767 271.938 184.16L276.891 179.225L281.11 183.458L259.583 204.91L256.357 201.673L257.549 198.857L257.37 198.678C256.679 198.833 255.956 198.882 255.202 198.826C254.465 198.769 253.72 198.565 252.965 198.214C252.211 197.863 251.461 197.314 250.717 196.567ZM255.554 194.697C256.703 195.85 257.853 196.321 259.004 196.112C260.174 195.902 261.464 195.122 262.875 193.771L263.332 193.316C264.835 191.818 265.754 190.443 266.087 189.191C266.43 187.93 265.977 186.673 264.727 185.418C263.798 184.487 262.671 184.158 261.345 184.432C260.018 184.706 258.599 185.596 257.086 187.104C255.574 188.611 254.697 190.009 254.455 191.298C254.223 192.595 254.589 193.729 255.554 194.697ZM278.654 193.113L283.258 197.734L277.465 209.325C277.281 209.693 277.077 210.052 276.856 210.401C276.634 210.75 276.394 211.1 276.136 211.449C275.877 211.799 275.596 212.153 275.292 212.511L275.374 212.594C275.927 212.153 276.467 211.763 276.992 211.423C277.527 211.093 278.08 210.79 278.651 210.515L290.207 204.707L294.715 209.231L270.748 220.072C269.283 220.741 267.879 221.112 266.534 221.183C265.181 221.263 263.91 221.068 262.724 220.596C261.546 220.134 260.465 219.409 259.482 218.422C259.004 217.943 258.618 217.5 258.324 217.094C258.021 216.698 257.773 216.348 257.58 216.044L260.928 212.707C261.075 212.947 261.277 213.233 261.534 213.565C261.791 213.896 262.081 214.224 262.403 214.547C262.991 215.137 263.621 215.52 264.293 215.696C264.964 215.872 265.655 215.892 266.364 215.755C267.064 215.627 267.746 215.398 268.409 215.068L269.418 214.559L278.654 193.113ZM304.295 249.779L307.648 243.515L300.3 236.141L294.024 239.472L289.42 234.851L316.843 221.751L322.068 226.995L308.9 254.4L304.295 249.779ZM310.225 238.907L313.468 232.753C313.689 232.348 313.966 231.824 314.299 231.18C314.65 230.536 315.001 229.883 315.352 229.22C315.722 228.558 316.049 227.992 316.336 227.523C315.866 227.808 315.266 228.148 314.538 228.542C313.829 228.937 313.151 229.309 312.506 229.657C311.861 230.006 311.4 230.254 311.124 230.401L304.973 233.635L310.225 238.907ZM317.135 263.217C315.416 261.492 314.688 259.415 314.95 256.985C315.231 254.555 316.68 252.034 319.3 249.424C321.947 246.786 324.495 245.341 326.945 245.087C329.403 244.824 331.515 245.578 333.28 247.349C334.015 248.087 334.562 248.838 334.919 249.603C335.277 250.368 335.488 251.123 335.551 251.869C335.623 252.624 335.59 253.356 335.45 254.065L335.588 254.203C335.828 253.854 336.193 253.353 336.682 252.7C337.189 252.047 337.747 251.417 338.356 250.811L343.309 245.875L347.528 250.109L326.001 271.56L322.775 268.323L323.967 265.508L323.788 265.328C323.097 265.483 322.374 265.533 321.62 265.476C320.883 265.42 320.138 265.216 319.383 264.865C318.629 264.513 317.88 263.964 317.135 263.217ZM321.972 261.347C323.121 262.5 324.271 262.972 325.422 262.762C326.592 262.552 327.882 261.772 329.293 260.421L329.75 259.966C331.253 258.468 332.172 257.093 332.505 255.841C332.848 254.581 332.395 253.323 331.145 252.069C330.216 251.137 329.089 250.808 327.763 251.082C326.437 251.356 325.017 252.247 323.505 253.754C321.992 255.261 321.115 256.659 320.873 257.948C320.641 259.246 321.007 260.379 321.972 261.347ZM353.579 283.712C352.288 284.999 350.969 285.964 349.624 286.606C348.288 287.257 346.943 287.595 345.589 287.621C344.254 287.646 342.947 287.367 341.669 286.785C340.399 286.212 339.185 285.344 338.027 284.182C336.943 283.094 336.121 281.919 335.561 280.656C335.011 279.403 334.742 278.1 334.753 276.746C334.783 275.393 335.112 274.036 335.741 272.674C336.379 271.322 337.343 270.002 338.634 268.715C340.35 267.006 342.106 265.863 343.902 265.286C345.699 264.709 347.466 264.675 349.206 265.185C350.945 265.694 352.591 266.728 354.144 268.287C355.587 269.735 356.556 271.325 357.05 273.057C357.554 274.798 357.527 276.579 356.972 278.401C356.425 280.232 355.294 282.003 353.579 283.712ZM342.922 273.018C341.907 274.029 341.164 274.99 340.693 275.901C340.222 276.811 340.046 277.676 340.164 278.496C340.282 279.316 340.718 280.104 341.472 280.86C342.216 281.607 342.994 282.037 343.804 282.148C344.623 282.27 345.484 282.092 346.387 281.614C347.299 281.146 348.263 280.407 349.277 279.396C350.301 278.376 351.039 277.419 351.492 276.527C351.963 275.635 352.135 274.783 352.008 273.973C351.88 273.163 351.44 272.379 350.686 271.623C349.574 270.507 348.382 270.077 347.111 270.332C345.849 270.597 344.453 271.492 342.922 273.018ZM375.037 289.252C376.774 290.995 377.497 293.077 377.208 295.498C376.927 297.928 375.477 300.449 372.858 303.059C371.106 304.805 369.377 306.022 367.673 306.71C365.977 307.388 364.38 307.583 362.879 307.295C361.379 307.007 360.05 306.282 358.892 305.12C358.147 304.373 357.601 303.64 357.252 302.921C356.913 302.193 356.702 301.493 356.621 300.821C356.548 300.139 356.545 299.49 356.61 298.873L356.39 298.652C356.094 299.094 355.771 299.526 355.421 299.949C355.07 300.372 354.71 300.767 354.341 301.134L348.102 307.352L343.897 303.133L366.171 280.936L369.59 284.367L368.177 286.961L368.37 287.155C369.06 287.018 369.779 286.973 370.524 287.021C371.27 287.068 372.02 287.267 372.774 287.618C373.547 287.97 374.301 288.514 375.037 289.252ZM370.31 291.26C369.575 290.522 368.839 290.088 368.102 289.958C367.366 289.828 366.592 289.965 365.781 290.368C364.98 290.781 364.104 291.443 363.154 292.352L362.697 292.807C361.701 293.8 360.949 294.733 360.441 295.607C359.943 296.49 359.734 297.332 359.815 298.133C359.906 298.944 360.342 299.741 361.123 300.525C361.767 301.17 362.475 301.522 363.248 301.578C364.022 301.635 364.855 301.42 365.749 300.933C366.662 300.447 367.62 299.703 368.626 298.701C370.138 297.194 371.043 295.823 371.34 294.59C371.637 293.357 371.293 292.247 370.31 291.26ZM379.561 319.138C380.021 319.599 380.513 320 381.037 320.342C381.57 320.693 382.122 321.016 382.692 321.312L379.552 324.441C378.899 324.191 378.172 323.794 377.372 323.25C376.572 322.723 375.777 322.064 374.986 321.271C374.067 320.348 373.387 319.371 372.947 318.339C372.526 317.307 372.472 316.211 372.787 315.052C373.121 313.892 373.952 312.651 375.28 311.327L382.737 303.896L380.724 301.877L382.509 300.098L386.236 301.016L390.714 298.98L393.402 301.678L390.11 304.959L394.425 309.289L391.257 312.446L386.942 308.116L379.485 315.547C378.894 316.135 378.617 316.742 378.653 317.369C378.707 317.995 379.01 318.585 379.561 319.138ZM405.778 320.101C407.202 321.53 408.153 323.037 408.629 324.622C409.114 326.197 409.116 327.785 408.634 329.386C408.153 330.988 407.16 332.537 405.657 334.036L403.609 336.076L393.669 326.101C392.525 327.333 391.943 328.621 391.922 329.965C391.92 331.309 392.512 332.576 393.697 333.766C394.681 334.753 395.683 335.556 396.704 336.174C397.725 336.793 398.87 337.334 400.14 337.796L396.875 341.05C395.734 340.661 394.657 340.134 393.646 339.47C392.643 338.814 391.549 337.892 390.364 336.702C388.82 335.152 387.736 333.493 387.113 331.724C386.499 329.965 386.438 328.16 386.929 326.31C387.43 324.47 388.57 322.662 390.35 320.889C392.158 319.087 393.964 317.893 395.77 317.307C397.594 316.721 399.353 316.678 401.046 317.178C402.748 317.669 404.326 318.643 405.778 320.101ZM402.803 323.12C401.985 322.299 401.042 321.879 399.974 321.858C398.915 321.847 397.782 322.361 396.574 323.399L402.475 329.32C403.093 328.686 403.536 328.015 403.804 327.306C404.082 326.607 404.147 325.898 404.001 325.18C403.864 324.471 403.465 323.784 402.803 323.12ZM406.362 352.756C404.643 351.031 403.915 348.954 404.177 346.523C404.457 344.093 405.907 341.573 408.526 338.963C411.173 336.325 413.722 334.879 416.171 334.626C418.63 334.363 420.742 335.117 422.506 336.888C423.242 337.626 423.788 338.377 424.146 339.142C424.504 339.907 424.714 340.662 424.777 341.408C424.85 342.163 424.816 342.895 424.677 343.604L424.815 343.742C425.055 343.393 425.419 342.891 425.908 342.239C426.416 341.586 426.974 340.956 427.583 340.349L432.536 335.414L436.754 339.647L415.227 361.099L412.001 357.862L413.194 355.046L413.015 354.867C412.324 355.022 411.601 355.071 410.846 355.015C410.11 354.958 409.364 354.754 408.61 354.403C407.856 354.052 407.106 353.503 406.362 352.756ZM411.199 350.886C412.348 352.039 413.498 352.51 414.649 352.301C415.819 352.091 417.109 351.311 418.52 349.96L418.976 349.505C420.48 348.007 421.398 346.632 421.732 345.38C422.075 344.119 421.621 342.862 420.371 341.607C419.443 340.676 418.316 340.347 416.989 340.621C415.663 340.895 414.244 341.785 412.731 343.293C411.218 344.8 410.341 346.198 410.1 347.487C409.867 348.784 410.234 349.918 411.199 350.886Z" fill="white"/>
</svg>
