<svg width="44" height="44" viewBox="0 0 44 44" fill="none" xmlns="http://www.w3.org/2000/svg">
<path d="M43.25 43.25C42.2835 44.2165 40.7165 44.2165 39.75 43.25L29.2472 32.7472C27.2563 30.7563 24.0876 30.6737 21.4375 31.625C19.8125 32.2083 18.0833 32.5 16.25 32.5C11.7083 32.5 7.865 30.9267 4.72 27.78C1.575 24.6333 0.00166799 20.79 1.32275e-06 16.25C-0.00166534 11.71 1.57167 7.86667 4.72 4.72C7.86833 1.57333 11.7117 0 16.25 0C20.7883 0 24.6325 1.57333 27.7825 4.72C30.9325 7.86667 32.505 11.71 32.5 16.25C32.5 18.0833 32.2083 19.8125 31.625 21.4375C30.6737 24.0876 30.7563 27.2563 32.7472 29.2472L43.25 39.75C44.2165 40.7165 44.2165 42.2835 43.25 43.25ZM16.25 27.5C19.375 27.5 22.0317 26.4067 24.22 24.22C26.4083 22.0333 27.5017 19.3767 27.5 16.25C27.4983 13.1233 26.405 10.4675 24.22 8.2825C22.035 6.0975 19.3783 5.00333 16.25 5C13.1217 4.99667 10.4658 6.09083 8.2825 8.2825C6.09917 10.4742 5.005 13.13 5 16.25C4.995 19.37 6.08917 22.0267 8.2825 24.22C10.4758 26.4133 13.1317 27.5067 16.25 27.5Z" fill="black"/>
</svg>
