<svg width="20" height="22" viewBox="0 0 20 22" fill="none" xmlns="http://www.w3.org/2000/svg">
<g id="bi:telephone-minus-fill" clip-path="url(#clip0_1400_786)">
<path id="Vector" fill-rule="evenodd" clip-rule="evenodd" d="M2.35635 0.702461C2.57507 0.462233 2.8377 0.275878 3.12685 0.155747C3.41599 0.0356156 3.72504 -0.0155496 4.03352 0.00564223C4.342 0.026834 4.64287 0.119899 4.91618 0.278669C5.18949 0.43744 5.429 0.65829 5.61885 0.926586L7.8626 4.09734C8.27385 4.67896 8.41885 5.43659 8.25635 6.15159L7.5726 9.16284C7.5375 9.31882 7.53953 9.48211 7.5785 9.63698C7.61747 9.79184 7.69207 9.93304 7.7951 10.047L10.8663 13.4253C10.97 13.5389 11.0986 13.6211 11.2396 13.664C11.3807 13.7068 11.5294 13.709 11.6713 13.6701L14.4076 12.918C14.7284 12.8303 15.0631 12.8237 15.3866 12.8987C15.71 12.9737 16.0138 13.1284 16.2751 13.3511L19.1576 15.8178C20.1938 16.7047 20.2888 18.3891 19.3613 19.408L18.0688 20.8297C17.1438 21.8472 15.7613 22.2941 14.4726 21.795C11.1734 20.5198 8.17827 18.4424 5.7101 15.7175C3.23307 13.0029 1.34454 9.70867 0.1851 6.08009C-0.2674 4.66384 0.13885 3.14171 1.06385 2.12421L2.35635 0.702461Z" fill="#124C59"/>
</g>
<defs>
<clipPath id="clip0_1400_786">
<rect width="20" height="22" fill="white"/>
</clipPath>
</defs>
</svg>
