<svg width="21" height="18" viewBox="0 0 21 18" fill="none" xmlns="http://www.w3.org/2000/svg">
<path d="M13.375 17.125H0.4375V12.25C1.2 12.25 1.93127 11.9076 2.47043 11.2981C3.0096 10.6886 3.3125 9.86195 3.3125 9C3.3125 8.13805 3.0096 7.3114 2.47043 6.7019C1.93127 6.09241 1.2 5.75 0.4375 5.75V0.875H13.375V4.9375H14.8125V0.875H20.5625V5.75C19.8 5.75 19.0687 6.09241 18.5296 6.7019C17.9904 7.3114 17.6875 8.13805 17.6875 9C17.6875 9.86195 17.9904 10.6886 18.5296 11.2981C19.0687 11.9076 19.8 12.25 20.5625 12.25V17.125H14.8125V13.0625H13.375V17.125ZM13.375 6.5625V11.4375H14.8125V6.5625H13.375Z" fill="#F2AE72"/>
</svg>
