<svg width="65" height="65" viewBox="0 0 65 65" fill="none" xmlns="http://www.w3.org/2000/svg">
<g id="uim:calendar">
<path id="Vector" opacity="0.5" d="M59.5832 27.0832H5.4165V51.4582C5.4165 53.6131 6.27253 55.6797 7.79626 57.2034C9.31999 58.7271 11.3866 59.5832 13.5415 59.5832H51.4582C53.6131 59.5832 55.6797 58.7271 57.2034 57.2034C58.7271 55.6797 59.5832 53.6131 59.5832 51.4582V27.0832ZM18.9582 21.6665C18.2399 21.6665 17.551 21.3812 17.0431 20.8733C16.5352 20.3653 16.2498 19.6765 16.2498 18.9582V8.12484C16.2498 7.40654 16.5352 6.71767 17.0431 6.20976C17.551 5.70185 18.2399 5.4165 18.9582 5.4165C19.6765 5.4165 20.3653 5.70185 20.8733 6.20976C21.3812 6.71767 21.6665 7.40654 21.6665 8.12484V18.9582C21.6665 19.6765 21.3812 20.3653 20.8733 20.8733C20.3653 21.3812 19.6765 21.6665 18.9582 21.6665ZM46.0415 21.6665C45.3232 21.6665 44.6343 21.3812 44.1264 20.8733C43.6185 20.3653 43.3332 19.6765 43.3332 18.9582V8.12484C43.3332 7.40654 43.6185 6.71767 44.1264 6.20976C44.6343 5.70185 45.3232 5.4165 46.0415 5.4165C46.7598 5.4165 47.4487 5.70185 47.9566 6.20976C48.4645 6.71767 48.7498 7.40654 48.7498 8.12484V18.9582C48.7498 19.6765 48.4645 20.3653 47.9566 20.8733C47.4487 21.3812 46.7598 21.6665 46.0415 21.6665Z" fill="#166B68"/>
<path id="Vector_2" d="M51.4582 10.8335H48.7498V18.9585C48.7498 19.6768 48.4645 20.3657 47.9566 20.8736C47.4487 21.3815 46.7598 21.6668 46.0415 21.6668C45.3232 21.6668 44.6343 21.3815 44.1264 20.8736C43.6185 20.3657 43.3332 19.6768 43.3332 18.9585V10.8335H21.6665V18.9585C21.6665 19.6768 21.3812 20.3657 20.8733 20.8736C20.3653 21.3815 19.6765 21.6668 18.9582 21.6668C18.2399 21.6668 17.551 21.3815 17.0431 20.8736C16.5352 20.3657 16.2498 19.6768 16.2498 18.9585V10.8335H13.5415C11.3866 10.8335 9.31999 11.6895 7.79626 13.2133C6.27253 14.737 5.4165 16.8036 5.4165 18.9585V27.0835H59.5832V18.9585C59.5832 16.8036 58.7271 14.737 57.2034 13.2133C55.6797 11.6895 53.6131 10.8335 51.4582 10.8335Z" fill="#166B68"/>
</g>
</svg>
