<svg width="65" height="65" viewBox="0 0 65 65" fill="none" xmlns="http://www.w3.org/2000/svg">
<g id="uim:calendar">
<path id="Vector" d="M5.9165 51.4583V27.5833H59.0832V51.4583C59.0832 53.4806 58.2798 55.42 56.8499 56.85C55.4199 58.2799 53.4804 59.0833 51.4582 59.0833H13.5415C11.5192 59.0833 9.57978 58.2799 8.14982 56.85C6.71985 55.42 5.9165 53.4806 5.9165 51.4583ZM18.9582 21.1666C18.3725 21.1666 17.8108 20.934 17.3966 20.5198C16.9825 20.1057 16.7498 19.544 16.7498 18.9583V8.12496C16.7498 7.53927 16.9825 6.97757 17.3966 6.56343C17.8108 6.14929 18.3725 5.91663 18.9582 5.91663C19.5439 5.91663 20.1056 6.14929 20.5197 6.56343C20.9338 6.97758 21.1665 7.53927 21.1665 8.12496V18.9583C21.1665 19.544 20.9338 20.1057 20.5197 20.5198C20.1056 20.934 19.5439 21.1666 18.9582 21.1666ZM46.0415 21.1666C45.4558 21.1666 44.8941 20.934 44.48 20.5198C44.0658 20.1057 43.8332 19.544 43.8332 18.9583V8.12496C43.8332 7.53927 44.0658 6.97757 44.48 6.56343C44.8941 6.14929 45.4558 5.91663 46.0415 5.91663C46.6272 5.91663 47.1889 6.14929 47.603 6.56343C48.0172 6.97757 48.2498 7.53927 48.2498 8.12496V18.9583C48.2498 19.544 48.0172 20.1057 47.603 20.5198C47.1889 20.934 46.6272 21.1666 46.0415 21.1666Z" stroke="white"/>
<path id="Vector_2" d="M49.2498 18.9584V11.3334H51.4582C53.4804 11.3334 55.4199 12.1367 56.8499 13.5667C58.2798 14.9966 59.0832 16.9361 59.0832 18.9584V26.5834H5.9165V18.9584C5.9165 16.9361 6.71985 14.9966 8.14982 13.5667C9.57978 12.1367 11.5192 11.3334 13.5415 11.3334H15.7498V18.9584C15.7498 19.8093 16.0879 20.6253 16.6895 21.227C17.2912 21.8287 18.1073 22.1667 18.9582 22.1667C19.8091 22.1667 20.6251 21.8287 21.2268 21.227C21.8285 20.6253 22.1665 19.8093 22.1665 18.9584V11.3334H42.8332V18.9584C42.8332 19.8093 43.1712 20.6253 43.7729 21.227C44.3745 21.8287 45.1906 22.1667 46.0415 22.1667C46.8924 22.1667 47.7085 21.8287 48.3101 21.227C48.9118 20.6253 49.2498 19.8093 49.2498 18.9584Z" stroke="white"/>
</g>
</svg>
