<svg width="46" height="38" viewBox="0 0 46 38" fill="none" xmlns="http://www.w3.org/2000/svg">
<path d="M24.1624 6.50301C24.1624 3.67294 26.1515 0.839844 29.2287 0.839844C32.3059 0.839844 34.295 3.67294 34.295 6.50301C34.295 9.33308 32.3059 12.1662 29.2287 12.1662C26.1515 12.1662 24.1624 9.33308 24.1624 6.50301ZM5.06631 7.63564C1.98911 7.63564 0 10.4687 0 13.2988C0 16.1289 1.98911 18.962 5.06631 18.962C8.14351 18.962 10.1326 16.1289 10.1326 13.2988C10.1326 10.4687 8.14351 7.63564 5.06631 7.63564ZM40.1408 7.63564C37.0636 7.63564 35.0744 10.4687 35.0744 13.2988C35.0744 16.1289 37.0636 18.962 40.1408 18.962C43.218 18.962 45.2071 16.1289 45.2071 13.2988C45.2071 10.4687 43.218 7.63564 40.1408 7.63564ZM15.9784 0.839844C12.9012 0.839844 10.912 3.67294 10.912 6.50301C10.912 9.33308 12.9012 12.1662 15.9784 12.1662C19.0556 12.1662 21.0447 9.33308 21.0447 6.50301C21.0447 3.67294 19.0556 0.839844 15.9784 0.839844ZM22.6035 15.9416C18.4692 15.9416 14.5041 17.5327 11.5807 20.3648C8.65726 23.197 7.01489 27.0382 7.01489 31.0434C7.01489 34.9638 10.7936 37.0841 14.1389 37.0841H31.0682C34.4135 37.0841 38.1922 34.9638 38.1922 31.0434C38.1922 27.0382 36.5498 23.197 33.6264 20.3648C30.7029 17.5327 26.7379 15.9416 22.6035 15.9416Z" fill="#166B68"/>
</svg>
